<svg width="78" height="40" viewBox="0 0 78 40" fill="none" xmlns="http://www.w3.org/2000/svg">
<path d="M26.1138 0.493863C26.4745 0.256897 26.8965 0.130118 27.3281 0.12901L73.3879 0.0107563C75.7023 0.00481431 77.5817 1.87934 77.5817 4.19375V15.4248C77.5817 16.6521 76.5867 17.647 75.3594 17.647H65.6862C65.1087 17.647 64.6405 17.1788 64.6405 16.6013V13.7255C64.6405 11.4153 62.7677 9.54247 60.4575 9.54247H41.6993C39.4613 9.54247 37.647 11.3567 37.647 13.5948V16.6013C37.647 17.1788 37.1788 17.647 36.6013 17.647H5.24523C3.68768 17.647 3.08222 15.6224 4.38403 14.7673L26.1138 0.493863Z" fill="#0878D8"/>
<path d="M26.1138 39.5061C26.4745 39.7431 26.8965 39.8699 27.3281 39.871L73.3879 39.9892C75.7023 39.9952 77.5817 38.1207 77.5817 35.8063V24.5752C77.5817 23.3479 76.5867 22.353 75.3594 22.353H65.6862C65.1087 22.353 64.6405 22.8212 64.6405 23.3987V26.2745C64.6405 28.5847 62.7677 30.4575 60.4575 30.4575H41.6993C39.4613 30.4575 37.647 28.6433 37.647 26.4052V23.3987C37.647 22.8212 37.1788 22.353 36.6013 22.353H5.24523C3.68768 22.353 3.08222 24.3776 4.38403 25.2327L26.1138 39.5061Z" fill="#0878D8"/>
<path d="M45.4225 21.8987C44.4709 21.8987 43.6675 21.5867 43.0123 20.9627C42.3571 20.3231 42.0295 19.5197 42.0295 18.5525V13.0301C42.0295 12.1877 42.4507 11.7665 43.2931 11.7665H59.7433C60.6169 11.7665 61.0537 12.1877 61.0537 13.0301V15.0191C61.0537 15.8771 60.6169 16.3061 59.7433 16.3061H47.9263C47.7235 16.3061 47.6143 16.4075 47.5987 16.6103V17.1719C47.5987 17.4527 47.7313 17.5931 47.9965 17.5931H58.4329C59.3845 17.5931 60.1801 17.9129 60.8197 18.5525C61.4749 19.1921 61.8025 19.9877 61.8025 20.9393V24.8237C61.8025 25.7597 61.4749 26.5553 60.8197 27.2105C60.1801 27.8501 59.3845 28.1699 58.4329 28.1699H44.8141C43.8157 28.1699 42.9967 27.8423 42.3571 27.1871C41.7175 26.5319 41.3977 25.7051 41.3977 24.7067V23.9345C41.3977 23.5133 41.5381 23.1701 41.8189 22.9049C42.0997 22.6397 42.4663 22.5071 42.9187 22.5071H46.1947C46.5691 22.5071 46.8499 22.5617 47.0371 22.6709C47.2399 22.7645 47.3959 22.9595 47.5051 23.2559C47.6143 23.5367 47.7781 23.6927 47.9965 23.7239H55.2037C55.4689 23.7239 55.6015 23.5913 55.6015 23.3261V22.3199C55.6015 22.0391 55.4689 21.8987 55.2037 21.8987H45.4225ZM45.4225 21.3839H55.2037C55.8589 21.3839 56.1865 21.6959 56.1865 22.3199V23.3261C56.1865 23.9345 55.8589 24.2387 55.2037 24.2387H47.9965C47.7469 24.2387 47.5441 24.1841 47.3881 24.0749C47.2321 23.9657 47.1463 23.8565 47.1307 23.7473C47.1307 23.5601 47.0527 23.3963 46.8967 23.2559C46.7563 23.0999 46.5223 23.0219 46.1947 23.0219H42.9187C42.2947 23.0219 41.9827 23.3261 41.9827 23.9345V24.7067C41.9827 25.5803 42.2401 26.2901 42.7549 26.8361C43.2853 27.3821 43.9717 27.6551 44.8141 27.6551H58.4329C59.2285 27.6551 59.8993 27.3821 60.4453 26.8361C60.9913 26.2901 61.2643 25.6193 61.2643 24.8237V20.9393C61.2643 20.1437 60.9913 19.4729 60.4453 18.9269C59.8993 18.3809 59.2285 18.1079 58.4329 18.1079H47.9965C47.3725 18.1079 47.0605 17.7959 47.0605 17.1719V16.5635C47.0605 16.0331 47.3179 15.7679 47.8327 15.7679H59.6965C60.2269 15.7679 60.4921 15.4949 60.4921 14.9489V13.1003C60.4921 12.7883 60.4297 12.5777 60.3049 12.4685C60.2113 12.3437 60.0085 12.2813 59.6965 12.2813H43.3399C42.8407 12.2813 42.5911 12.5543 42.5911 13.1003V18.5525C42.5911 19.3637 42.8563 20.0423 43.3867 20.5883C43.9483 21.1187 44.6269 21.3839 45.4225 21.3839ZM45.4225 20.8691C44.7829 20.8691 44.2369 20.6507 43.7845 20.2139C43.5661 19.9799 43.4023 19.7381 43.2931 19.4885C43.1839 19.2233 43.1293 18.9113 43.1293 18.5525V13.1237C43.1293 12.9365 43.2307 12.8351 43.4335 12.8195H59.6029C59.7901 12.8195 59.8915 12.9209 59.9071 13.1237V14.9255C59.9071 15.1283 59.8057 15.2375 59.6029 15.2531H47.7625C46.9357 15.2531 46.5223 15.6665 46.5223 16.4933V17.1719C46.5223 17.6087 46.6549 17.9597 46.9201 18.2249C47.1853 18.4901 47.5441 18.6227 47.9965 18.6227H58.4329C59.0881 18.6227 59.6341 18.8411 60.0709 19.2779C60.5077 19.7147 60.7261 20.2685 60.7261 20.9393V24.8237C60.7261 25.4633 60.5077 26.0093 60.0709 26.4617C59.6497 26.9141 59.1037 27.1403 58.4329 27.1403H44.8141C44.1589 27.1403 43.6129 26.9141 43.1761 26.4617C42.7393 25.9937 42.5209 25.4087 42.5209 24.7067V23.9345C42.5209 23.6849 42.6535 23.5601 42.9187 23.5601H46.1947C46.4287 23.5601 46.5691 23.6225 46.6159 23.7473C46.7563 24.1373 46.9123 24.4103 47.0839 24.5663C47.2711 24.7067 47.5753 24.7769 47.9965 24.7769H55.2037C55.6873 24.7769 56.0617 24.6599 56.3269 24.4259C56.5921 24.1763 56.7247 23.8097 56.7247 23.3261V22.3199C56.7247 21.3527 56.2177 20.8691 55.2037 20.8691H45.4225Z" fill="#0098F8"/>
</svg>
