<svg width="78" height="40" viewBox="0 0 78 40" fill="none" xmlns="http://www.w3.org/2000/svg">
<path d="M26.1138 0.493873C26.4745 0.256908 26.8965 0.130129 27.3281 0.129021L73.3879 0.010767C75.7023 0.00482503 77.5817 1.87935 77.5817 4.19376V15.4248C77.5817 16.6521 76.5867 17.647 75.3594 17.647H65.6862C65.1087 17.647 64.6405 17.1789 64.6405 16.6013V13.7255C64.6405 11.4153 62.7677 9.54248 60.4575 9.54248H41.6993C39.4613 9.54248 37.647 11.3567 37.647 13.5948V16.6013C37.647 17.1789 37.1788 17.647 36.6013 17.647H5.24522C3.68767 17.647 3.08221 15.6225 4.38403 14.7673L26.1138 0.493873Z" fill="#0878D8"/>
<path d="M26.1138 39.5061C26.4745 39.7431 26.8965 39.8699 27.3281 39.871L73.3879 39.9892C75.7023 39.9952 77.5817 38.1206 77.5817 35.8062V24.5752C77.5817 23.3479 76.5867 22.353 75.3594 22.353H65.6862C65.1087 22.353 64.6405 22.8211 64.6405 23.3987V26.2745C64.6405 28.5847 62.7677 30.4575 60.4575 30.4575H41.6993C39.4613 30.4575 37.647 28.6433 37.647 26.4052V23.3987C37.647 22.8211 37.1788 22.353 36.6013 22.353H5.24522C3.68767 22.353 3.08221 24.3775 4.38403 25.2327L26.1138 39.5061Z" fill="#0878D8"/>
<path d="M41.5833 15.1127C41.5833 14.1923 41.9109 13.4045 42.5661 12.7493C43.2213 12.0941 44.0325 11.7665 44.9997 11.7665H58.2675C59.2191 11.7665 60.0225 12.0863 60.6777 12.7259C61.3329 13.3655 61.6605 14.1611 61.6605 15.1127V18.9971C61.6605 19.9487 61.3719 20.7209 60.7947 21.3137C60.2175 21.9065 59.3751 22.2575 58.2675 22.3667L47.5269 23.4197L47.4099 23.4899L47.5269 23.5835H60.3501C61.2237 23.5835 61.6605 24.0047 61.6605 24.8471V26.9531C61.6605 27.7643 61.2237 28.1699 60.3501 28.1699H42.8703C42.0123 28.1699 41.5833 27.7487 41.5833 26.9063V22.4135C41.5833 21.4619 41.8797 20.6897 42.4725 20.0969C43.0653 19.5041 43.9077 19.1375 44.9997 18.9971L55.3425 17.9675C55.5921 17.9675 55.7169 17.8271 55.7169 17.5463V16.7975C55.7169 16.5479 55.5921 16.4153 55.3425 16.3997H47.9013C47.7297 16.3997 47.5815 16.4933 47.4567 16.6805C47.1447 17.1953 46.6923 17.4527 46.0995 17.4527H43.0809C42.6129 17.4527 42.2463 17.3357 41.9811 17.1017C41.7159 16.8521 41.5833 16.4933 41.5833 16.0253V15.1127ZM58.2675 12.2813H44.9997C44.1885 12.2813 43.5099 12.5543 42.9639 13.1003C42.4335 13.6307 42.1683 14.3015 42.1683 15.1127V16.0253C42.1683 16.6337 42.4725 16.9379 43.0809 16.9379H46.0995C46.3803 16.9379 46.5753 16.9067 46.6845 16.8443C46.7937 16.7663 46.9107 16.6103 47.0355 16.3763C47.2227 16.0487 47.5113 15.8849 47.9013 15.8849H55.3425C55.9821 15.8849 56.3019 16.1891 56.3019 16.7975V17.5463C56.3019 18.1079 55.9821 18.4199 55.3425 18.4823L44.9997 19.5119C44.1417 19.6055 43.4553 19.9175 42.9405 20.4479C42.4257 20.9783 42.1683 21.6335 42.1683 22.4135V26.8361C42.1683 27.3821 42.4257 27.6551 42.9405 27.6551H60.2799C60.5919 27.6551 60.8103 27.6083 60.9351 27.5147C61.0599 27.4211 61.1223 27.2105 61.1223 26.8829V24.9173C61.1223 24.6053 61.0677 24.3947 60.9585 24.2855C60.8493 24.1763 60.6231 24.1217 60.2799 24.1217H47.5035C47.0355 24.1217 46.8015 23.9267 46.8015 23.5367C46.8015 23.3339 46.8561 23.1935 46.9653 23.1155C47.0745 23.0219 47.2149 22.9595 47.3865 22.9283L58.2675 21.8285C59.1879 21.7349 59.8899 21.4463 60.3735 20.9627C60.8727 20.4635 61.1223 19.8083 61.1223 18.9971V15.1127C61.1223 14.3171 60.8493 13.6463 60.3033 13.1003C59.7573 12.5543 59.0787 12.2813 58.2675 12.2813ZM58.2675 12.8195C58.9227 12.8195 59.4687 13.0379 59.9055 13.4747C60.3423 13.9115 60.5607 14.4575 60.5607 15.1127V18.9971C60.5607 19.6523 60.3657 20.1827 59.9757 20.5883C59.6013 20.9783 59.0319 21.2201 58.2675 21.3137L47.2461 22.4135C46.9653 22.4135 46.7157 22.5227 46.4973 22.7411C46.2945 22.9439 46.1931 23.2091 46.1931 23.5367C46.1931 23.8799 46.3101 24.1607 46.5441 24.3791C46.7937 24.5819 47.1291 24.6833 47.5503 24.6833H60.2097C60.4437 24.6833 60.5607 24.7925 60.5607 25.0109V26.7893C60.5607 27.0233 60.4437 27.1403 60.2097 27.1403H43.0107C42.8391 27.1403 42.7377 27.0233 42.7065 26.7893V22.4135C42.7065 21.7583 42.9015 21.2279 43.2915 20.8223C43.6815 20.4011 44.2509 20.1437 44.9997 20.0501L55.3425 18.9971C56.3409 18.9035 56.8401 18.4199 56.8401 17.5463V16.7975C56.8401 15.8459 56.3409 15.3701 55.3425 15.3701H47.9013C47.5269 15.3701 47.2305 15.4481 47.0121 15.6041C46.9029 15.6977 46.7391 15.9083 46.5207 16.2359C46.4583 16.3139 46.3179 16.3685 46.0995 16.3997H43.0809C42.8469 16.3997 42.7221 16.2749 42.7065 16.0253V15.1127C42.7065 14.4731 42.9171 13.9349 43.3383 13.4981C43.7751 13.0457 44.3289 12.8195 44.9997 12.8195H58.2675Z" fill="#0098F8"/>
</svg>
