<svg width="78" height="40" viewBox="0 0 78 40" fill="none" xmlns="http://www.w3.org/2000/svg">
<path d="M26.1138 0.493863C26.4745 0.256897 26.8965 0.130118 27.3281 0.12901L73.3879 0.0107563C75.7023 0.00481431 77.5817 1.87934 77.5817 4.19375V15.4248C77.5817 16.6521 76.5867 17.647 75.3594 17.647H65.6862C65.1087 17.647 64.6405 17.1788 64.6405 16.6013V13.7255C64.6405 11.4153 62.7677 9.54247 60.4575 9.54247H41.6993C39.4613 9.54247 37.647 11.3567 37.647 13.5948V16.6013C37.647 17.1788 37.1788 17.647 36.6013 17.647H5.24522C3.68768 17.647 3.08221 15.6224 4.38403 14.7673L26.1138 0.493863Z" fill="#0878D8"/>
<path d="M26.1138 39.5061C26.4745 39.7431 26.8965 39.8699 27.3281 39.871L73.3879 39.9892C75.7023 39.9952 77.5817 38.1207 77.5817 35.8063V24.5752C77.5817 23.3479 76.5867 22.353 75.3594 22.353H65.6862C65.1087 22.353 64.6405 22.8212 64.6405 23.3987V26.2745C64.6405 28.5847 62.7677 30.4575 60.4575 30.4575H41.6993C39.4613 30.4575 37.647 28.6433 37.647 26.4052V23.3987C37.647 22.8212 37.1788 22.353 36.6013 22.353H5.24522C3.68768 22.353 3.08221 24.3776 4.38403 25.2327L26.1138 39.5061Z" fill="#0878D8"/>
<path d="M59.2449 26.9063C59.2449 27.7487 58.8237 28.1699 57.9813 28.1699H54.6585C53.8161 28.1699 53.3949 27.7487 53.3949 26.9063V25.9469C53.3949 25.7753 53.2779 25.6739 53.0439 25.6427H41.9991C41.1411 25.6427 40.7121 25.2215 40.7121 24.3791V19.3481C40.7121 18.9737 40.7901 18.6851 40.9461 18.4823C41.1021 18.2795 41.4219 18.0221 41.9055 17.7101L49.9551 12.3047C50.2047 12.1487 50.4777 12.0239 50.7741 11.9303C51.0861 11.8211 51.4293 11.7665 51.8037 11.7665H57.9813C58.8237 11.7665 59.2449 12.1877 59.2449 13.0301V20.7989C59.2449 20.9861 59.3463 21.0875 59.5491 21.1031H61.1169C61.9593 21.1031 62.3805 21.5243 62.3805 22.3667V24.3791C62.3805 25.2215 61.9593 25.6427 61.1169 25.6427H59.5491C59.3619 25.6427 59.2605 25.7441 59.2449 25.9469V26.9063ZM54.7053 27.6551H57.8877C58.1997 27.6551 58.4103 27.6005 58.5195 27.4913C58.6443 27.3665 58.7067 27.1481 58.7067 26.8361V25.9235C58.7067 25.3931 58.9641 25.1279 59.4789 25.1279H61.0701C61.5693 25.1279 61.8189 24.8549 61.8189 24.3089V22.4369C61.8189 22.1249 61.7643 21.9143 61.6551 21.8051C61.5615 21.6803 61.3665 21.6179 61.0701 21.6179H59.4789C59.1981 21.6179 58.9953 21.5633 58.8705 21.4541C58.7613 21.3449 58.7067 21.1343 58.7067 20.8223V13.1003C58.7067 12.7883 58.6443 12.5777 58.5195 12.4685C58.4259 12.3437 58.2153 12.2813 57.8877 12.2813H51.8505C51.2733 12.2813 50.7273 12.4451 50.2125 12.7727L42.1395 18.1781L41.6013 18.5525C41.3673 18.7397 41.2503 19.0283 41.2503 19.4183V24.3089C41.2503 24.8549 41.5233 25.1279 42.0693 25.1279H53.1375C53.4495 25.1279 53.6601 25.1903 53.7693 25.3151C53.8941 25.4087 53.9565 25.6115 53.9565 25.9235V26.8361C53.9565 27.1325 54.0033 27.3509 54.0969 27.4913C54.2061 27.6005 54.4089 27.6551 54.7053 27.6551ZM61.2807 22.4837V24.2621C61.2807 24.4649 61.1793 24.5741 60.9765 24.5897H59.4087C58.5819 24.5897 58.1685 25.0109 58.1685 25.8533V26.7893C58.1685 27.0233 58.0437 27.1403 57.7941 27.1403H54.7989C54.6273 27.1403 54.5259 27.0233 54.4947 26.7893V25.8533C54.4947 25.0109 54.0735 24.5897 53.2311 24.5897H42.1629C41.9601 24.5897 41.8509 24.4805 41.8353 24.2621V19.4417L41.9055 19.0673C41.9523 18.9893 42.1161 18.8411 42.3969 18.6227L50.4699 13.2407C50.9223 12.9599 51.4137 12.8195 51.9441 12.8195H57.7941C58.0281 12.8195 58.1529 12.9209 58.1685 13.1237V20.8925C58.1685 21.7193 58.5819 22.1327 59.4087 22.1327H60.9765C61.1481 22.1327 61.2495 22.2497 61.2807 22.4837ZM54.4947 17.2655C54.4947 16.1735 54.0501 15.6275 53.1609 15.6275C52.8801 15.6275 52.6071 15.7133 52.3419 15.8849L46.0239 20.0501C45.7899 20.2061 45.5949 20.3699 45.4389 20.5415C45.3453 20.6663 45.2829 20.8457 45.2517 21.0797C45.2517 21.7817 45.6963 22.1327 46.5855 22.1327H52.9737C53.4573 22.1327 53.8317 22.0157 54.0969 21.7817C54.3621 21.5321 54.4947 21.1733 54.4947 20.7053V17.2655ZM53.9565 17.2421V20.7053C53.9565 21.3137 53.6289 21.6179 52.9737 21.6179H46.5855C46.0707 21.6179 45.8133 21.4541 45.8133 21.1265C45.8133 20.8925 45.9771 20.6819 46.3047 20.4947L52.5993 16.3295C52.7553 16.2359 52.9581 16.1735 53.2077 16.1423C53.7069 16.1423 53.9565 16.5089 53.9565 17.2421ZM46.5855 21.1031H52.9737C53.2545 21.1031 53.3949 20.9705 53.3949 20.7053V17.0549C53.3949 16.8209 53.2857 16.7039 53.0673 16.7039L52.8333 16.7975L46.5855 20.9627L46.4919 21.0329L46.5855 21.1031Z" fill="#0098F8"/>
</svg>
