<svg width="79" height="40" viewBox="0 0 79 40" fill="none" xmlns="http://www.w3.org/2000/svg">
<path d="M26.7135 0.493873C27.0742 0.256908 27.4962 0.130129 27.9278 0.129021L73.9876 0.010767C76.302 0.00482503 78.1813 1.87935 78.1813 4.19376V15.4248C78.1813 16.6521 77.1864 17.647 75.9591 17.647H66.2859C65.7084 17.647 65.2402 17.1789 65.2402 16.6013V13.7255C65.2402 11.4153 63.3674 9.54248 61.0572 9.54248H42.299C40.061 9.54248 38.2467 11.3567 38.2467 13.5948V16.6013C38.2467 17.1789 37.7785 17.647 37.201 17.647H5.84489C4.28734 17.647 3.68188 15.6225 4.9837 14.7673L26.7135 0.493873Z" fill="#0878D8"/>
<path d="M26.7135 39.5061C27.0742 39.7431 27.4962 39.8699 27.9278 39.871L73.9876 39.9892C76.302 39.9952 78.1813 38.1206 78.1813 35.8062V24.5752C78.1813 23.3479 77.1864 22.353 75.9591 22.353H66.2859C65.7084 22.353 65.2402 22.8211 65.2402 23.3987V26.2745C65.2402 28.5847 63.3674 30.4575 61.0572 30.4575H42.299C40.061 30.4575 38.2467 28.6433 38.2467 26.4052V23.3987C38.2467 22.8211 37.7785 22.353 37.201 22.353H5.84489C4.28734 22.353 3.68188 24.3775 4.9837 25.2327L26.7135 39.5061Z" fill="#0878D8"/>
<path d="M41.9068 24.8367V23.4847C41.9068 23.0652 42.0469 22.7233 42.327 22.4591C42.6227 22.1794 42.9884 22.0395 43.4241 22.0395H46.2719C46.6298 22.0395 46.8944 22.1017 47.0656 22.226C47.2523 22.3503 47.3846 22.5679 47.4624 22.8787C47.5558 23.1739 47.618 23.3449 47.6491 23.3915C47.6958 23.4226 47.8281 23.4536 48.0459 23.4847H55.0487C55.2977 23.4847 55.4222 23.3526 55.4222 23.0885V22.4824C55.4222 22.2338 55.2977 22.1017 55.0487 22.0862H50.4036C49.5321 22.0862 49.0964 21.6744 49.0964 20.8508V18.9394C49.0964 18.1003 49.5321 17.6807 50.4036 17.6807H54.8153C55.0799 17.6807 55.2121 17.5486 55.2121 17.2844V16.725C55.2121 16.4764 55.0799 16.3521 54.8153 16.3521H48.0459C47.9215 16.3521 47.8203 16.3754 47.7425 16.422L47.5324 16.8649C47.4546 17.0824 47.3223 17.2534 47.1356 17.3777C46.9488 17.4865 46.661 17.5408 46.2719 17.5408H43.4241C42.9884 17.5408 42.6227 17.4243 42.327 17.1912C42.0469 16.9426 41.9068 16.5852 41.9068 16.119V15.1633C41.9068 14.2465 42.2336 13.4617 42.8872 12.809C43.5408 12.1564 44.35 11.83 45.3149 11.83H57.6631C58.628 11.83 59.4294 12.1408 60.0674 12.7624C60.721 13.384 61.0478 14.1843 61.0478 15.1633V16.9814C61.0478 17.5875 60.9155 18.1003 60.651 18.5198L59.7406 19.6154C59.7562 19.6465 59.7717 19.6853 59.7873 19.7319C59.8029 19.763 59.834 19.8018 59.8807 19.8485L60.1375 20.0583C61.0556 20.7575 61.5147 21.6122 61.5147 22.6223V24.8367C61.5147 25.769 61.1801 26.5616 60.5109 27.2142C59.8418 27.8513 59.0326 28.1699 58.0833 28.1699H45.3149C44.35 28.1699 43.5408 27.8513 42.8872 27.2142C42.2336 26.5771 41.9068 25.7846 41.9068 24.8367ZM45.3149 27.6571H58.0833C58.8925 27.6571 59.5694 27.3929 60.1141 26.8646C60.6743 26.3207 60.9544 25.6447 60.9544 24.8367V22.6223C60.9544 21.7831 60.6354 21.0994 59.9974 20.5711L59.4372 20.1515C59.266 20.0116 59.1804 19.8562 59.1804 19.6853C59.1804 19.561 59.3983 19.2347 59.834 18.7063C60.2697 18.178 60.4876 17.603 60.4876 16.9814V15.1633C60.4876 14.3708 60.223 13.7026 59.6939 13.1587C59.1804 12.6148 58.5035 12.3429 57.6631 12.3429H45.3149C44.5056 12.3429 43.8287 12.6148 43.284 13.1587C42.7549 13.687 42.4904 14.3552 42.4904 15.1633V16.119C42.4904 16.725 42.8016 17.028 43.4241 17.028H46.2719C46.5676 17.028 46.7932 16.9581 46.9488 16.8183C47.1045 16.6784 47.1901 16.5463 47.2056 16.422C47.2212 16.2977 47.2445 16.22 47.2756 16.1889C47.3068 16.1423 47.3768 16.0801 47.4857 16.0024C47.5947 15.9092 47.7814 15.847 48.0459 15.8159H54.8153C55.4378 15.8159 55.749 16.119 55.749 16.725V17.2844C55.749 17.906 55.4378 18.2168 54.8153 18.2168H50.4502C50.1701 18.2168 49.9678 18.2712 49.8433 18.38C49.7344 18.4888 49.6799 18.6985 49.6799 19.0093V20.7808C49.6799 21.3092 49.9367 21.5734 50.4502 21.5734H55.0487C55.6557 21.5734 55.9591 21.8764 55.9591 22.4824V23.0885C55.9591 23.6945 55.6557 23.9975 55.0487 23.9975H48.0459C47.6258 23.9975 47.3301 23.8111 47.1589 23.4381L46.9022 22.8088C46.8088 22.6689 46.5754 22.599 46.2019 22.599H43.4241C42.8016 22.599 42.4904 22.8942 42.4904 23.4847V24.8367C42.4904 25.6292 42.7472 26.2974 43.2607 26.8413C43.7898 27.3852 44.4745 27.6571 45.3149 27.6571ZM45.3149 27.1443C44.6613 27.1443 44.1166 26.919 43.6809 26.4683C43.2451 26.0021 43.0273 25.4583 43.0273 24.8367V23.4847C43.0273 23.2361 43.1596 23.1118 43.4241 23.1118H46.2019C46.3886 23.1118 46.5053 23.1662 46.552 23.2749L46.6454 23.5313C46.7854 23.8732 46.9488 24.1296 47.1356 24.3006C47.3223 24.4404 47.6258 24.5103 48.0459 24.5103H55.0487C55.5156 24.5103 55.8813 24.3938 56.1459 24.1607C56.4104 23.9121 56.5427 23.5547 56.5427 23.0885V22.4824C56.5427 21.519 56.0447 21.0372 55.0487 21.0372H50.5436C50.3569 21.0372 50.2557 20.9362 50.2402 20.7342V19.0326C50.2402 18.8462 50.3413 18.7452 50.5436 18.7296H54.8153C55.2822 18.7296 55.6479 18.6131 55.9124 18.38C56.177 18.1313 56.3093 17.7662 56.3093 17.2844V16.725C56.3093 15.7771 55.8113 15.3031 54.8153 15.3031H48.0459C47.6413 15.3031 47.3535 15.3731 47.1823 15.5129C47.0111 15.6528 46.8321 15.917 46.6454 16.3054C46.5987 16.4453 46.4742 16.5152 46.2719 16.5152H43.4241C43.1596 16.5152 43.0273 16.3831 43.0273 16.119V15.1633C43.0273 14.5262 43.2374 13.99 43.6575 13.5549C44.0933 13.1043 44.6457 12.879 45.3149 12.879H57.6631C58.3167 12.879 58.8614 13.0965 59.2971 13.5316C59.7328 13.9667 59.9507 14.5106 59.9507 15.1633V16.9814C59.9507 17.401 59.8729 17.7429 59.7173 18.007L59.2037 18.6364L58.7602 19.2191C58.6669 19.359 58.6202 19.5221 58.6202 19.7086C58.6202 19.9572 58.7058 20.167 58.8769 20.338L59.4839 20.8042C60.0752 21.2237 60.3709 21.8298 60.3709 22.6223V24.8367C60.3709 25.4893 60.153 26.041 59.7173 26.4916C59.2816 26.9267 58.7369 27.1443 58.0833 27.1443H45.3149Z" fill="#0098F8"/>
</svg>
