<svg width="78" height="40" viewBox="0 0 78 40" fill="none" xmlns="http://www.w3.org/2000/svg">
<path d="M26.5145 0.493873C26.8752 0.256908 27.2972 0.130129 27.7288 0.129021L73.7886 0.010767C76.103 0.00482503 77.9823 1.87935 77.9823 4.19376V15.4248C77.9823 16.6521 76.9874 17.647 75.7601 17.647H66.0869C65.5094 17.647 65.0412 17.1789 65.0412 16.6013V13.7255C65.0412 11.4153 63.1684 9.54248 60.8582 9.54248H42.1C39.862 9.54248 38.0477 11.3567 38.0477 13.5948V16.6013C38.0477 17.1789 37.5795 17.647 37.002 17.647H5.64588C4.08834 17.647 3.48288 15.6225 4.78469 14.7673L26.5145 0.493873Z" fill="#0878D8"/>
<path d="M26.5145 39.5061C26.8752 39.7431 27.2972 39.8699 27.7288 39.871L73.7886 39.9892C76.103 39.9952 77.9823 38.1206 77.9823 35.8062V24.5752C77.9823 23.3479 76.9874 22.353 75.7601 22.353H66.0869C65.5094 22.353 65.0412 22.8211 65.0412 23.3987V26.2745C65.0412 28.5847 63.1684 30.4575 60.8582 30.4575H42.1C39.862 30.4575 38.0477 28.6433 38.0477 26.4052V23.3987C38.0477 22.8211 37.5795 22.353 37.002 22.353H5.64588C4.08834 22.353 3.48288 24.3775 4.78469 25.2327L26.5145 39.5061Z" fill="#0878D8"/>
<path d="M50.0733 11.7665H53.9343C54.7923 11.7665 55.2213 12.1877 55.2213 13.0301V26.9063C55.2213 27.7487 54.7923 28.1699 53.9343 28.1699H50.3073C49.4493 28.1699 49.0203 27.7487 49.0203 26.9063V16.7975C49.0203 16.5947 48.9111 16.4855 48.6927 16.4699H48.2715C47.4759 16.4699 47.0781 16.1891 47.0781 15.6275C47.0781 15.4871 47.0937 15.3779 47.1249 15.2999L47.4291 14.7149L48.6927 12.6557C49.0515 12.0629 49.5117 11.7665 50.0733 11.7665ZM48.3417 15.9551H48.7863C49.0671 15.9551 49.2621 16.0097 49.3713 16.1189C49.4961 16.2281 49.5585 16.4387 49.5585 16.7507V26.8361C49.5585 27.1481 49.6131 27.3665 49.7223 27.4913C49.8627 27.6005 50.0811 27.6551 50.3775 27.6551H53.8641C54.3789 27.6551 54.6363 27.3821 54.6363 26.8361V13.1003C54.6363 12.5543 54.3789 12.2813 53.8641 12.2813H50.1435C49.9095 12.2813 49.7301 12.3203 49.6053 12.3983C49.4805 12.4763 49.3323 12.6479 49.1607 12.9131L47.8971 14.9957C47.7567 15.1829 47.6709 15.3701 47.6397 15.5573C47.6397 15.8225 47.8737 15.9551 48.3417 15.9551ZM48.5523 15.4403C48.4119 15.4403 48.3417 15.3935 48.3417 15.2999L48.4119 15.0893L49.6287 13.1471C49.7535 12.9287 49.9641 12.8195 50.2605 12.8195H53.7705C53.9733 12.8195 54.0825 12.9209 54.0981 13.1237V26.7893C54.0981 27.0233 53.9889 27.1403 53.7705 27.1403H50.4477C50.2137 27.1403 50.0967 27.0233 50.0967 26.7893V16.6805C50.0967 15.8537 49.6833 15.4403 48.8565 15.4403H48.5523Z" fill="#0098F8"/>
</svg>
