<svg width="78" height="40" viewBox="0 0 78 40" fill="none" xmlns="http://www.w3.org/2000/svg">
<path d="M26.1138 0.493863C26.4745 0.256897 26.8965 0.130118 27.3281 0.12901L73.3879 0.0107563C75.7023 0.00481431 77.5817 1.87934 77.5817 4.19375V15.4248C77.5817 16.6521 76.5867 17.647 75.3594 17.647H65.6862C65.1087 17.647 64.6405 17.1788 64.6405 16.6013V13.7255C64.6405 11.4153 62.7677 9.54247 60.4575 9.54247H41.6993C39.4613 9.54247 37.647 11.3567 37.647 13.5948V16.6013C37.647 17.1788 37.1788 17.647 36.6013 17.647H5.24523C3.68768 17.647 3.08222 15.6224 4.38403 14.7673L26.1138 0.493863Z" fill="#0878D8"/>
<path d="M26.1138 39.5061C26.4745 39.7431 26.8965 39.8699 27.3281 39.871L73.3879 39.9892C75.7023 39.9952 77.5817 38.1207 77.5817 35.8063V24.5752C77.5817 23.3479 76.5867 22.353 75.3594 22.353H65.6862C65.1087 22.353 64.6405 22.8212 64.6405 23.3987V26.2745C64.6405 28.5847 62.7677 30.4575 60.4575 30.4575H41.6993C39.4613 30.4575 37.647 28.6433 37.647 26.4052V23.3987C37.647 22.8212 37.1788 22.353 36.6013 22.353H5.24523C3.68768 22.353 3.08222 24.3776 4.38403 25.2327L26.1138 39.5061Z" fill="#0878D8"/>
<path d="M41.6616 15.1127C41.6616 14.1923 41.9892 13.4045 42.6444 12.7493C43.2996 12.0941 44.1186 11.7665 45.1014 11.7665H58.1118C59.079 11.7665 59.8902 12.0863 60.5454 12.7259C61.2006 13.3655 61.5282 14.1611 61.5282 15.1127V15.8849C61.5282 16.8365 61.029 17.3123 60.0306 17.3123H56.7312C56.0916 17.3123 55.6626 17.0549 55.4442 16.5401C55.3506 16.2749 55.1868 16.1267 54.9528 16.0955H48.2604C48.0108 16.0955 47.886 16.2281 47.886 16.4933V17.3825C47.886 17.6633 48.0108 17.8037 48.2604 17.8037H58.1118C59.079 17.8037 59.8902 18.1235 60.5454 18.7631C61.2006 19.4027 61.5282 20.1983 61.5282 21.1499V24.8237C61.5282 25.7597 61.1928 26.5553 60.522 27.2105C59.8512 27.8501 59.0478 28.1699 58.1118 28.1699H45.1014C44.103 28.1699 43.2762 27.8501 42.621 27.2105C41.9814 26.5709 41.6616 25.7753 41.6616 24.8237V15.1127ZM42.2466 24.8237C42.2466 25.6349 42.5118 26.3135 43.0422 26.8595C43.6038 27.3899 44.2902 27.6551 45.1014 27.6551H58.1118C58.923 27.6551 59.6016 27.3899 60.1476 26.8595C60.7092 26.3135 60.99 25.6349 60.99 24.8237V21.1499C60.99 20.3699 60.7092 19.7069 60.1476 19.1609C59.6016 18.5993 58.923 18.3185 58.1118 18.3185H48.2604C47.6364 18.3185 47.3244 18.0065 47.3244 17.3825V16.4933C47.3244 15.8849 47.6364 15.5807 48.2604 15.5807H54.9528C55.1868 15.5807 55.3818 15.6353 55.5378 15.7445C55.6938 15.8537 55.7796 15.9629 55.7952 16.0721C55.7952 16.2593 55.8654 16.4309 56.0058 16.5869C56.1618 16.7273 56.4036 16.7975 56.7312 16.7975H60.0306C60.6702 16.7975 60.99 16.4933 60.99 15.8849V15.1127C60.99 14.3171 60.717 13.6463 60.171 13.1003C59.625 12.5543 58.9386 12.2813 58.1118 12.2813H45.1014C44.2902 12.2813 43.6116 12.5543 43.0656 13.1003C42.5196 13.6463 42.2466 14.3171 42.2466 15.1127V24.8237ZM42.8082 24.8237V15.1127C42.8082 14.4731 43.0188 13.9349 43.44 13.4981C43.8768 13.0457 44.4306 12.8195 45.1014 12.8195H58.1118C58.767 12.8195 59.313 13.0379 59.7498 13.4747C60.1866 13.9115 60.405 14.4575 60.405 15.1127V15.8849C60.405 16.1189 60.2802 16.2437 60.0306 16.2593H56.7312C56.544 16.2593 56.4192 16.1969 56.3568 16.0721C56.2164 15.6977 56.0448 15.4325 55.842 15.2765C55.6548 15.1205 55.3584 15.0425 54.9528 15.0425H48.2604C47.2776 15.0425 46.7862 15.5261 46.7862 16.4933V17.3825C46.7862 17.8193 46.9188 18.1703 47.184 18.4355C47.4492 18.7007 47.808 18.8333 48.2604 18.8333H58.1118C58.767 18.8333 59.313 19.0517 59.7498 19.4885C60.1866 19.9253 60.405 20.4791 60.405 21.1499V24.8237C60.405 25.4789 60.1866 26.0327 59.7498 26.4851C59.313 26.9219 58.767 27.1403 58.1118 27.1403H45.1014C44.4462 27.1403 43.9002 26.9141 43.4634 26.4617C43.0266 25.9937 42.8082 25.4477 42.8082 24.8237ZM54.9528 21.0797H48.2604C47.808 21.0797 47.4492 21.2045 47.184 21.4541C46.9188 21.6881 46.7862 22.0469 46.7862 22.5305V23.4431C46.7862 23.8799 46.9188 24.2309 47.184 24.4961C47.4492 24.7613 47.808 24.8939 48.2604 24.8939H54.9528C55.4208 24.8939 55.7874 24.7769 56.0526 24.5429C56.3178 24.2933 56.4504 23.9267 56.4504 23.4431V22.5305C56.4504 21.5633 55.9512 21.0797 54.9528 21.0797ZM54.9528 21.5945C55.5612 21.5945 55.8654 21.9065 55.8654 22.5305V23.4431C55.8654 24.0359 55.5612 24.3323 54.9528 24.3323H48.2604C47.6364 24.3323 47.3244 24.0359 47.3244 23.4431V22.5305C47.3244 21.9065 47.6364 21.5945 48.2604 21.5945H54.9528ZM54.9528 23.8175C55.1868 23.8175 55.3116 23.6927 55.3272 23.4431V22.5305C55.3272 22.2809 55.2024 22.1483 54.9528 22.1327H48.2604C48.0108 22.1327 47.886 22.2653 47.886 22.5305V23.4431C47.886 23.6771 48.0108 23.8019 48.2604 23.8175H54.9528Z" fill="#0098F8"/>
</svg>
