<svg width="29" height="40" viewBox="0 0 29 40" fill="none" xmlns="http://www.w3.org/2000/svg">
<path d="M28.5816 39.8582L28.2624 40C27.6714 38.487 27.1868 37.2813 26.8085 36.383C25.6265 33.6407 24.4799 31.5012 23.3688 29.9645C23.0142 29.4681 22.3995 28.7707 21.5248 27.8723C20.4846 26.8085 19.409 25.7801 18.2979 24.7872C16.2175 25.6856 14.409 26.4894 12.8723 27.1986C11.3593 27.8842 10.4019 28.4279 10 28.8298C8.6052 30.2719 7.19858 31.7021 5.78014 33.1206C5.18912 33.7116 3.91253 34.9645 1.95035 36.8794C1.38298 37.4232 0.827423 37.9669 0.283688 38.5106L0 38.2979C0.330969 37.2577 0.673759 36.2175 1.02837 35.1773C2.02128 32.1986 2.83688 29.8109 3.47518 28.0142C4.51537 25.1064 5.48463 22.4941 6.38298 20.1773C7.30496 17.8605 8.6052 14.9173 10.2837 11.3475C11.513 8.7234 12.7896 6.08747 14.1135 3.43972C14.6808 2.30496 15.26 1.15839 15.8511 0C15.8747 0 16.4066 1.19385 17.4468 3.58156C18.8652 6.79669 20.0355 9.58629 20.9574 11.9504C22.3995 15.6147 23.5106 18.7825 24.2908 21.4539C24.8818 23.4634 25.5556 26.0875 26.3121 29.3262C26.6903 30.9574 27.2222 33.3924 27.9078 36.6312C28.1206 37.695 28.3452 38.7707 28.5816 39.8582Z" fill="#F8F800"/>
<path d="M28.5816 39.8582L28.2624 40C27.6714 38.487 27.1868 37.2813 26.8085 36.383C25.6265 33.6407 24.4799 31.5012 23.3688 29.9645C23.0142 29.4681 22.3995 28.7707 21.5248 27.8723C20.4846 26.8085 19.409 25.7801 18.2979 24.7872C16.2175 25.6856 14.409 26.4894 12.8723 27.1986C11.3593 27.8842 10.4019 28.4279 10 28.8298C8.6052 30.2719 7.19858 31.7021 5.78014 33.1206C5.18912 33.7116 3.91253 34.9645 1.95035 36.8794C1.38298 37.4232 0.827423 37.9669 0.283688 38.5106L0 38.2979C0.330969 37.2577 0.673759 36.2175 1.02837 35.1773C2.02128 32.1986 2.83688 29.8109 3.47518 28.0142C4.51537 25.1064 5.48463 22.4941 6.38298 20.1773C7.30496 17.8605 8.6052 14.9173 10.2837 11.3475C11.513 8.7234 12.7896 6.08747 14.1135 3.43972C14.6808 2.30496 15.26 1.15839 15.8511 0C15.8747 0 16.4066 1.19385 17.4468 3.58156C18.8652 6.79669 20.0355 9.58629 20.9574 11.9504C22.3995 15.6147 23.5106 18.7825 24.2908 21.4539C24.8818 23.4634 25.5556 26.0875 26.3121 29.3262C26.6903 30.9574 27.2222 33.3924 27.9078 36.6312C28.1206 37.695 28.3452 38.7707 28.5816 39.8582ZM28.0851 39.1489C27.7778 37.6596 27.4704 36.182 27.1631 34.7163C26.6667 32.4705 26.1702 30.2837 25.6738 28.156C25.0827 25.6265 24.5035 23.4161 23.9362 21.5248C23.2269 19.1371 22.2459 16.3239 20.9929 13.0851C20.0236 10.5556 18.9598 7.9669 17.8014 5.31915C17.3995 4.39716 16.7258 2.89598 15.7801 0.815602C15 2.3286 14.2908 3.74704 13.6525 5.07092C12.5414 7.34043 11.383 9.78723 10.1773 12.4113C8.7825 15.461 7.63593 18.1087 6.73759 20.3546C6.14657 21.8203 5.33097 24.0189 4.29078 26.9504C3.27423 29.8582 2.52955 32.0095 2.05674 33.4043C1.58392 34.7991 1.09929 36.2411 0.602837 37.7305C2.11584 36.2411 3.4279 34.9409 4.53901 33.8298C6.61938 31.7494 8.34515 30.0118 9.71631 28.617C10.2837 28.0496 11.8913 27.1631 14.539 25.9574C15.4137 25.5792 16.6785 25.0355 18.3333 24.3262C19.3026 25.2246 20.0473 25.922 20.5674 26.4184C22.1277 27.9314 23.156 29.0426 23.6525 29.7518C24.3381 30.6974 25.0118 31.974 25.6738 33.5816C27.1631 37.1277 27.9669 38.9835 28.0851 39.1489ZM19.8936 15.6738L17.3404 18.0142L18.1915 22.2695L15.6383 19.2908L13.5106 21.844L13.9362 17.8014L11.5957 15.6738L14.5745 15.1064L15.8511 3.5461L17.1277 15.0355L19.8936 15.6738Z" fill="black"/>
</svg>
