<?xml version="1.0" encoding="UTF-8" standalone="no"?>
<!DOCTYPE svg PUBLIC "-//W3C//DTD SVG 1.1//EN" "http://www.w3.org/Graphics/SVG/1.1/DTD/svg11.dtd">
<svg width="100%" height="100%" viewBox="0 0 294 115" version="1.1" xmlns="http://www.w3.org/2000/svg" xmlns:xlink="http://www.w3.org/1999/xlink" xml:space="preserve" xmlns:serif="http://www.serif.com/" style="fill-rule:evenodd;clip-rule:evenodd;stroke-linejoin:round;stroke-miterlimit:2;">
    <g id="MORENA" transform="matrix(1,0,0,1,-580.381,-169.129)">
        <rect x="580.381" y="169.129" width="293.379" height="114.925" style="fill:none;"/>
        <clipPath id="_clip1">
            <rect x="580.381" y="169.129" width="293.379" height="114.925"/>
        </clipPath>
        <g clip-path="url(#_clip1)">
            <g transform="matrix(1.88687,0,0,1,543.037,161.47)">
                <path d="M20.397,115.338L23.735,115.338C23.729,116.39 23.842,117.067 24.074,117.369C24.24,117.567 24.454,117.684 24.716,117.72C24.978,117.757 25.805,117.785 27.196,117.806C28.654,117.796 29.529,117.778 29.821,117.752C30.114,117.726 30.346,117.645 30.517,117.509C30.771,117.311 30.898,116.775 30.898,115.9C30.898,115.265 30.808,114.84 30.629,114.627C30.449,114.413 30.083,114.296 29.531,114.275C29.106,114.275 28.206,114.213 26.832,114.088C25.424,113.963 24.508,113.89 24.082,113.869C23.254,113.817 22.618,113.668 22.174,113.423C21.729,113.179 21.383,112.78 21.134,112.228C20.709,111.311 20.497,109.78 20.497,107.634C20.497,105.228 20.74,103.53 21.226,102.541C21.595,101.77 22.164,101.278 22.931,101.064C23.699,100.851 25.258,100.744 27.61,100.744C29.272,100.744 30.439,100.832 31.113,101.009C32.151,101.28 32.863,101.824 33.249,102.642C33.636,103.46 33.829,104.838 33.829,106.775C33.829,106.952 33.826,107.285 33.821,107.775L30.484,107.775C30.473,107.181 30.446,106.775 30.405,106.556C30.364,106.338 30.282,106.16 30.161,106.025C30.012,105.858 29.749,105.752 29.374,105.705C28.999,105.658 28.204,105.634 26.989,105.634C25.526,105.634 24.635,105.72 24.314,105.892C23.994,106.064 23.834,106.541 23.834,107.322C23.834,108.072 23.994,108.53 24.314,108.697C24.579,108.832 25.797,108.963 27.966,109.088C29.794,109.192 31.015,109.314 31.631,109.455C32.246,109.595 32.736,109.864 33.1,110.259C33.514,110.728 33.807,111.371 33.978,112.189C34.149,113.007 34.235,114.181 34.235,115.713C34.235,117.723 34.091,119.218 33.804,120.197C33.589,120.916 33.289,121.452 32.906,121.806C32.522,122.16 31.982,122.4 31.287,122.525C30.542,122.65 29.153,122.712 27.122,122.713C25.421,122.712 24.165,122.629 23.354,122.462C22.542,122.296 21.932,121.999 21.524,121.572C21.099,121.114 20.805,120.509 20.642,119.759C20.479,119.009 20.397,117.869 20.397,116.338L20.397,115.338Z" style="fill:rgb(140,243,247);fill-rule:nonzero;"/>
                <path d="M37.994,101.072L41.613,101.072L41.613,108.697L49.388,108.697L49.388,101.072L53.007,101.072L53.007,122.4L49.388,122.4L49.388,114.666L41.613,114.666L41.613,122.4L37.994,122.4L37.994,101.072Z" style="fill:rgb(140,243,247);fill-rule:nonzero;"/>
                <rect x="57.155" y="101.072" width="3.619" height="21.328" style="fill:rgb(140,243,247);fill-rule:nonzero;"/>
                <path d="M64.922,122.4L64.922,101.072L72.665,101.072C74.2,101.072 75.188,101.129 75.629,101.244C76.75,101.525 77.508,102.205 77.902,103.283C78.297,104.361 78.495,106.285 78.495,109.056C78.495,111.692 78.332,113.541 78.006,114.603C77.785,115.322 77.476,115.869 77.079,116.244C76.681,116.619 76.137,116.879 75.447,117.025C74.956,117.129 74.039,117.181 72.698,117.181L68.367,117.181L68.367,122.4L64.922,122.4ZM68.367,111.853L72.673,111.853C73.457,111.843 73.936,111.822 74.11,111.791C74.284,111.759 74.44,111.676 74.578,111.541C74.754,111.364 74.876,111.095 74.942,110.736C75.008,110.377 75.041,109.817 75.041,109.056C75.041,108.296 75,107.739 74.917,107.384C74.834,107.03 74.688,106.775 74.478,106.619C74.324,106.504 73.722,106.431 72.673,106.4L68.367,106.4L68.367,111.853Z" style="fill:rgb(140,243,247);fill-rule:nonzero;"/>
                <path d="M81.061,101.072L85.591,101.072L89.276,109.619L92.803,101.072L97.292,101.072L91.106,114.853L91.106,122.4L87.545,122.4L87.545,114.853L81.061,101.072Z" style="fill:rgb(140,243,247);fill-rule:nonzero;"/>
                <path d="M110.491,122.4L109.522,118.791L102.044,118.791L101.075,122.4L97.142,122.4L103.137,101.072L108.487,101.072L114.399,122.4L110.491,122.4ZM108.313,114.119L106.135,106.041L105.448,106.041L103.27,114.119L108.313,114.119Z" style="fill:rgb(140,243,247);fill-rule:nonzero;"/>
                <path d="M117.479,122.4L117.479,101.072L125.802,101.072C127.756,101.082 128.926,101.121 129.313,101.189C129.699,101.257 130.072,101.499 130.431,101.916C130.861,102.405 131.157,103.08 131.317,103.939C131.477,104.798 131.557,106.15 131.557,107.994C131.557,109.546 131.506,110.686 131.404,111.416C131.302,112.145 131.11,112.728 130.828,113.166C130.525,113.634 130.066,113.957 129.454,114.134C130.177,114.239 130.696,114.629 131.01,115.306C131.193,115.713 131.308,116.205 131.358,116.783C131.408,117.361 131.433,118.572 131.433,120.416L131.433,122.4L128.038,122.4L128.038,121.259C128.038,120.072 128.014,119.226 127.967,118.72C127.92,118.215 127.833,117.827 127.706,117.556C127.579,117.306 127.404,117.147 127.18,117.08C126.957,117.012 126.489,116.978 125.777,116.978L120.924,116.978L120.924,122.4L117.479,122.4ZM120.924,111.65L125.769,111.65C126.613,111.619 127.117,111.59 127.28,111.564C127.443,111.538 127.582,111.457 127.698,111.322C127.847,111.145 127.952,110.882 128.013,110.533C128.073,110.184 128.104,109.655 128.104,108.947C128.104,108.249 128.069,107.728 128,107.384C127.931,107.041 127.811,106.791 127.64,106.634C127.519,106.53 127.374,106.468 127.205,106.447C127.037,106.426 126.555,106.41 125.76,106.4L120.924,106.4L120.924,111.65Z" style="fill:rgb(140,243,247);fill-rule:nonzero;"/>
                <path d="M135.308,122.4L135.308,101.072L143.464,101.072C144.911,101.072 145.857,101.093 146.305,101.134C146.752,101.176 147.218,101.291 147.704,101.478C148.836,101.916 149.573,103.124 149.915,105.103C150.042,105.853 150.128,106.658 150.172,107.517C150.216,108.377 150.238,109.676 150.238,111.416C150.238,113.322 150.212,114.765 150.159,115.744C150.107,116.723 150.009,117.614 149.865,118.416C149.529,120.291 148.836,121.447 147.787,121.884C147.296,122.093 146.771,122.231 146.214,122.298C145.656,122.366 144.742,122.4 143.473,122.4L135.308,122.4ZM138.703,116.963L143.497,116.963C144.381,116.963 145.031,116.908 145.448,116.798C145.864,116.689 146.158,116.499 146.329,116.228C146.517,115.926 146.65,115.447 146.727,114.791C146.804,114.134 146.843,113.145 146.843,111.822C146.843,110.499 146.81,109.504 146.743,108.838C146.677,108.171 146.561,107.66 146.396,107.306C146.208,106.921 145.936,106.673 145.58,106.564C145.224,106.455 144.519,106.4 143.464,106.4L138.703,106.4L138.703,116.963Z" style="fill:rgb(140,243,247);fill-rule:nonzero;"/>
                <path d="M153.765,115.338L157.102,115.338C157.097,116.39 157.21,117.067 157.442,117.369C157.607,117.567 157.821,117.684 158.084,117.72C158.346,117.757 159.173,117.785 160.564,117.806C162.021,117.796 162.896,117.778 163.189,117.752C163.481,117.726 163.713,117.645 163.884,117.509C164.138,117.311 164.265,116.775 164.265,115.9C164.265,115.265 164.176,114.84 163.996,114.627C163.817,114.413 163.451,114.296 162.899,114.275C162.474,114.275 161.574,114.213 160.199,114.088C158.792,113.963 157.875,113.89 157.45,113.869C156.622,113.817 155.986,113.668 155.541,113.423C155.097,113.179 154.751,112.78 154.502,112.228C154.077,111.311 153.865,109.78 153.865,107.634C153.865,105.228 154.107,103.53 154.593,102.541C154.963,101.77 155.532,101.278 156.299,101.064C157.066,100.851 158.626,100.744 160.978,100.744C162.64,100.744 163.807,100.832 164.481,101.009C165.518,101.28 166.231,101.824 166.617,102.642C167.004,103.46 167.197,104.838 167.197,106.775C167.197,106.952 167.194,107.285 167.188,107.775L163.851,107.775C163.84,107.181 163.814,106.775 163.773,106.556C163.731,106.338 163.65,106.16 163.528,106.025C163.379,105.858 163.117,105.752 162.742,105.705C162.366,105.658 161.571,105.634 160.357,105.634C158.894,105.634 158.002,105.72 157.682,105.892C157.362,106.064 157.202,106.541 157.202,107.322C157.202,108.072 157.362,108.53 157.682,108.697C157.947,108.832 159.164,108.963 161.334,109.088C163.161,109.192 164.383,109.314 164.998,109.455C165.614,109.595 166.104,109.864 166.468,110.259C166.882,110.728 167.175,111.371 167.346,112.189C167.517,113.007 167.603,114.181 167.603,115.713C167.603,117.723 167.459,119.218 167.172,120.197C166.957,120.916 166.657,121.452 166.273,121.806C165.89,122.16 165.35,122.4 164.655,122.525C163.909,122.65 162.521,122.712 160.489,122.713C158.789,122.712 157.533,122.629 156.721,122.462C155.91,122.296 155.3,121.999 154.891,121.572C154.466,121.114 154.172,120.509 154.009,119.759C153.847,119.009 153.765,117.869 153.765,116.338L153.765,115.338Z" style="fill:rgb(140,243,247);fill-rule:nonzero;"/>
            </g>
            <g transform="matrix(1.9527,0,-0.768165,4.85,627.341,-316.53)">
                <path d="M43.077,118.474L35.747,118.474L35.747,103.088L30.21,103.088L30.21,118.474L22.753,118.474L22.753,102.662C22.753,101.872 23.281,101.258 24.337,100.82C25.393,100.381 26.871,100.162 28.77,100.162L35.075,100.162C36.441,100.162 37.502,100.317 38.26,100.626C39.017,100.936 39.396,101.369 39.396,101.928C39.396,101.361 39.77,100.925 40.516,100.62C41.263,100.315 42.309,100.162 43.653,100.162L49.958,100.162C51.858,100.162 53.346,100.381 54.423,100.82C55.501,101.258 56.04,101.872 56.04,102.662L56.04,118.474L48.518,118.474L48.518,103.088L43.077,103.088L43.077,118.474Z" style="fill:rgb(0,154,255);fill-rule:nonzero;"/>
                <path d="M58.139,102.662C58.139,101.872 58.668,101.258 59.724,100.82C60.78,100.381 62.258,100.162 64.157,100.162L72.479,100.162C74.399,100.162 75.898,100.381 76.976,100.82C78.053,101.258 78.592,101.872 78.592,102.662L78.592,115.961C78.592,116.76 78.058,117.379 76.992,117.817C75.925,118.255 74.42,118.474 72.479,118.474L64.157,118.474C62.258,118.474 60.78,118.255 59.724,117.817C58.668,117.379 58.139,116.76 58.139,115.961L58.139,102.662ZM71.038,103.062L65.597,103.062L65.597,115.575L71.038,115.575L71.038,103.062Z" style="fill:rgb(0,154,255);fill-rule:nonzero;"/>
                <path d="M101.208,109.235L95.703,110.369L104.217,118.474L96.407,118.474L89.333,111.696L88.213,111.928L88.213,118.474L80.756,118.474L80.756,100.162L95.127,100.162C97.026,100.162 98.514,100.381 99.592,100.82C100.669,101.258 101.208,101.872 101.208,102.662L101.208,109.235ZM93.75,107.546L93.75,103.062L88.213,103.062L88.213,108.655L93.75,107.546Z" style="fill:rgb(0,154,255);fill-rule:nonzero;"/>
                <path d="M121.328,118.474L103.308,118.474L103.308,100.162L121.328,100.162L121.328,103.088L110.765,103.088L110.765,107.817L121.328,105.678L121.328,108.951L110.765,111.116L110.765,115.549L121.328,115.549L121.328,118.474Z" style="fill:rgb(0,154,255);fill-rule:nonzero;"/>
                <path d="M130.117,118.474L122.723,118.474L122.723,100.162L130.117,100.162L130.149,101.606C130.341,101.125 130.799,100.764 131.525,100.523C132.25,100.283 133.232,100.162 134.47,100.162L137.03,100.162C138.929,100.162 140.418,100.381 141.495,100.82C142.573,101.258 143.111,101.872 143.111,102.662L143.111,118.474L135.654,118.474L135.654,103.088L130.117,103.088L130.117,118.474Z" style="fill:rgb(0,154,255);fill-rule:nonzero;"/>
                <path d="M158.334,107.495L158.334,103.062L152.797,103.062L152.797,108.577L158.334,107.495ZM165.792,118.474L158.334,118.474L158.334,110.716L152.797,111.851L152.797,118.474L145.339,118.474L145.339,102.662C145.339,101.872 145.867,101.258 146.923,100.82C147.98,100.381 149.457,100.162 151.356,100.162L159.71,100.162C161.609,100.162 163.098,100.381 164.175,100.82C165.253,101.258 165.792,101.872 165.792,102.662L165.792,118.474Z" style="fill:rgb(0,154,255);fill-rule:nonzero;"/>
            </g>
        </g>
    </g>
</svg>
