<?xml version="1.0" encoding="UTF-8" standalone="no"?><!DOCTYPE svg PUBLIC "-//W3C//DTD SVG 1.1//EN" "http://www.w3.org/Graphics/SVG/1.1/DTD/svg11.dtd"><svg width="100%" height="100%" viewBox="0 0 282 115" version="1.1" xmlns="http://www.w3.org/2000/svg" xmlns:xlink="http://www.w3.org/1999/xlink" xml:space="preserve" xmlns:serif="http://www.serif.com/" style="fill-rule:evenodd;clip-rule:evenodd;stroke-linejoin:round;stroke-miterlimit:2;"><rect id="MORENA" x="0" y="0" width="282" height="115" style="fill:none;"/><clipPath id="_clip1"><rect x="0" y="0" width="282" height="115"/></clipPath><g clip-path="url(#_clip1)"><g id="MORENA1" serif:id="MORENA"><rect x="0" y="0" width="293.379" height="114.925" style="fill:none;"/><g><g><path d="M48,93.127l4.802,0c-0.009,0.802 0.154,1.318 0.488,1.549c0.239,0.151 0.547,0.24 0.924,0.268c0.377,0.028 1.567,0.05 3.568,0.066c2.098,-0.008 3.356,-0.021 3.776,-0.041c0.422,-0.02 0.755,-0.082 1.001,-0.185c0.365,-0.151 0.548,-0.56 0.548,-1.227c0,-0.484 -0.129,-0.808 -0.387,-0.971c-0.259,-0.163 -0.785,-0.252 -1.58,-0.268c-0.611,0 -1.906,-0.047 -3.883,-0.143c-2.026,-0.095 -3.343,-0.151 -3.956,-0.167c-1.191,-0.04 -2.106,-0.153 -2.745,-0.34c-0.64,-0.186 -1.138,-0.49 -1.496,-0.911c-0.611,-0.699 -0.916,-1.866 -0.916,-3.503c0,-1.834 0.35,-3.129 1.049,-3.883c0.531,-0.588 1.349,-0.963 2.453,-1.126c1.105,-0.162 3.348,-0.244 6.731,-0.244c2.391,0 4.07,0.067 5.04,0.202c1.493,0.207 2.518,0.621 3.073,1.245c0.557,0.624 0.834,1.674 0.834,3.151c0,0.135 -0.004,0.389 -0.012,0.762l-4.801,0c-0.016,-0.453 -0.055,-0.762 -0.114,-0.929c-0.059,-0.166 -0.177,-0.302 -0.351,-0.405c-0.214,-0.127 -0.593,-0.208 -1.132,-0.244c-0.539,-0.036 -1.683,-0.054 -3.431,-0.054c-2.105,0 -3.387,0.066 -3.848,0.197c-0.46,0.131 -0.691,0.495 -0.691,1.09c0,0.572 0.23,0.921 0.691,1.048c0.381,0.103 2.133,0.203 5.254,0.298c2.63,0.079 4.386,0.172 5.273,0.28c0.885,0.107 1.59,0.312 2.113,0.613c0.596,0.358 1.017,0.848 1.263,1.472c0.246,0.624 0.37,1.519 0.37,2.687c0,1.533 -0.207,2.672 -0.62,3.419c-0.309,0.548 -0.741,0.957 -1.292,1.227c-0.552,0.27 -1.329,0.453 -2.329,0.548c-1.072,0.095 -3.07,0.143 -5.992,0.143c-2.447,-0.001 -4.254,-0.064 -5.421,-0.191c-1.168,-0.127 -2.046,-0.353 -2.633,-0.679c-0.611,-0.349 -1.034,-0.81 -1.269,-1.382c-0.234,-0.572 -0.352,-1.441 -0.352,-2.608l0,-0.762Z" style="fill:#8cf3f7;fill-rule:nonzero;"/><path d="M73.316,82.25l5.206,0l0,5.814l11.185,0l0,-5.814l5.206,0l0,16.261l-5.206,0l0,-5.897l-11.185,0l0,5.897l-5.206,0l0,-16.261Z" style="fill:#8cf3f7;fill-rule:nonzero;"/><rect x="100.881" y="82.25" width="5.206" height="16.261" style="fill:#8cf3f7;"/><path d="M112.055,98.511l0,-16.261l11.139,0c2.208,0 3.63,0.043 4.264,0.131c1.613,0.214 2.703,0.733 3.27,1.555c0.568,0.822 0.853,2.289 0.853,4.402c0,2.01 -0.234,3.42 -0.703,4.229c-0.318,0.548 -0.762,0.965 -1.334,1.251c-0.573,0.286 -1.355,0.484 -2.348,0.595c-0.706,0.079 -2.026,0.119 -3.955,0.119l-6.231,0l0,3.979l-4.956,0Zm4.956,-8.041l6.195,0c1.128,-0.008 1.817,-0.024 2.067,-0.047c0.25,-0.024 0.475,-0.088 0.673,-0.191c0.253,-0.135 0.429,-0.34 0.524,-0.614c0.095,-0.274 0.142,-0.701 0.142,-1.281c0,-0.579 -0.059,-1.004 -0.178,-1.275c-0.119,-0.27 -0.329,-0.464 -0.632,-0.583c-0.222,-0.088 -1.088,-0.143 -2.597,-0.167l-6.195,0l0,4.158Z" style="fill:#8cf3f7;fill-rule:nonzero;"/><path d="M135.273,82.25l6.517,0l5.301,6.517l5.074,-6.517l6.458,0l-8.899,10.507l0,5.754l-5.123,0l0,-5.754l-9.328,-10.507Z" style="fill:#8cf3f7;fill-rule:nonzero;"/><path d="M177.612,98.511l-1.394,-2.752l-10.758,0l-1.394,2.752l-5.658,0l8.625,-16.261l7.697,0l8.505,16.261l-5.622,0Zm-3.133,-6.314l-3.133,-6.159l-0.988,0l-3.133,6.159l7.255,0Z" style="fill:#8cf3f7;fill-rule:nonzero;"/><path d="M187.665,98.511l0,-16.261l11.974,0c2.811,0.008 4.494,0.037 5.051,0.089c0.555,0.052 1.092,0.236 1.608,0.554c0.619,0.373 1.044,0.887 1.275,1.542c0.23,0.655 0.345,1.686 0.345,3.092c0,1.183 -0.073,2.052 -0.22,2.609c-0.147,0.556 -0.423,1 -0.829,1.334c-0.436,0.357 -1.096,0.603 -1.977,0.738c1.04,0.08 1.787,0.377 2.239,0.894c0.263,0.31 0.429,0.685 0.501,1.126c0.072,0.441 0.108,1.364 0.108,2.77l0,1.513l-4.884,0l0,-0.87c0,-0.905 -0.035,-1.55 -0.102,-1.936c-0.068,-0.385 -0.193,-0.681 -0.375,-0.887c-0.183,-0.191 -0.434,-0.312 -0.757,-0.363c-0.321,-0.052 -0.994,-0.078 -2.018,-0.078l-6.982,0l0,4.134l-4.956,0Zm4.956,-8.196l6.97,0c1.214,-0.024 1.939,-0.046 2.174,-0.066c0.234,-0.02 0.434,-0.082 0.601,-0.185c0.214,-0.135 0.365,-0.335 0.453,-0.602c0.086,-0.266 0.131,-0.669 0.131,-1.209c0,-0.532 -0.05,-0.929 -0.15,-1.192c-0.099,-0.262 -0.272,-0.452 -0.518,-0.572c-0.174,-0.079 -0.383,-0.127 -0.626,-0.143c-0.242,-0.016 -0.935,-0.028 -2.079,-0.036l-6.957,0l0,4.003Z" style="fill:#8cf3f7;fill-rule:nonzero;"/><path d="M213.314,98.511l0,-16.261l11.733,0c2.082,0 3.443,0.016 4.087,0.047c0.643,0.032 1.313,0.12 2.013,0.262c1.629,0.334 2.689,1.255 3.181,2.764c0.183,0.572 0.306,1.186 0.37,1.841c0.063,0.656 0.095,1.646 0.095,2.973c0,1.453 -0.037,2.553 -0.114,3.3c-0.075,0.746 -0.216,1.426 -0.423,2.037c-0.483,1.43 -1.48,2.311 -2.989,2.644c-0.706,0.159 -1.462,0.265 -2.263,0.316c-0.803,0.052 -2.118,0.078 -3.943,0.078l-11.746,0Zm4.884,-4.145l6.897,0c1.272,0 2.207,-0.042 2.807,-0.126c0.598,-0.083 1.021,-0.228 1.267,-0.435c0.27,-0.23 0.462,-0.595 0.573,-1.096c0.111,-0.501 0.167,-1.255 0.167,-2.264c0,-1.009 -0.047,-1.767 -0.144,-2.275c-0.095,-0.509 -0.262,-0.898 -0.499,-1.168c-0.27,-0.294 -0.662,-0.483 -1.174,-0.566c-0.512,-0.083 -1.526,-0.125 -3.044,-0.125l-6.849,0l0,8.054Z" style="fill:#8cf3f7;fill-rule:nonzero;"/><path d="M239.867,93.127l4.801,0c-0.007,0.802 0.155,1.318 0.489,1.549c0.237,0.151 0.545,0.24 0.924,0.268c0.377,0.028 1.567,0.05 3.568,0.066c2.096,-0.008 3.355,-0.021 3.776,-0.041c0.42,-0.02 0.754,-0.082 1,-0.185c0.365,-0.151 0.548,-0.56 0.548,-1.227c0,-0.484 -0.128,-0.808 -0.387,-0.971c-0.258,-0.163 -0.784,-0.252 -1.578,-0.268c-0.611,0 -1.906,-0.047 -3.884,-0.143c-2.024,-0.095 -3.343,-0.151 -3.955,-0.167c-1.191,-0.04 -2.106,-0.153 -2.746,-0.34c-0.639,-0.186 -1.137,-0.49 -1.495,-0.911c-0.611,-0.699 -0.916,-1.866 -0.916,-3.503c0,-1.834 0.348,-3.129 1.047,-3.883c0.532,-0.588 1.351,-0.963 2.454,-1.126c1.103,-0.162 3.348,-0.244 6.731,-0.244c2.391,0 4.07,0.067 5.04,0.202c1.492,0.207 2.518,0.621 3.073,1.245c0.557,0.624 0.834,1.674 0.834,3.151c0,0.135 -0.004,0.389 -0.013,0.762l-4.801,0c-0.016,-0.453 -0.053,-0.762 -0.112,-0.929c-0.06,-0.166 -0.177,-0.302 -0.352,-0.405c-0.214,-0.127 -0.591,-0.208 -1.131,-0.244c-0.541,-0.036 -1.685,-0.054 -3.431,-0.054c-2.105,0 -3.388,0.066 -3.848,0.197c-0.46,0.131 -0.691,0.495 -0.691,1.09c0,0.572 0.23,0.921 0.691,1.048c0.381,0.103 2.132,0.203 5.254,0.298c2.628,0.079 4.386,0.172 5.271,0.28c0.886,0.107 1.591,0.312 2.115,0.613c0.596,0.358 1.017,0.848 1.263,1.472c0.246,0.624 0.37,1.519 0.37,2.687c0,1.533 -0.207,2.672 -0.62,3.419c-0.309,0.548 -0.741,0.957 -1.293,1.227c-0.551,0.27 -1.328,0.453 -2.328,0.548c-1.073,0.095 -3.07,0.143 -5.993,0.143c-2.446,-0.001 -4.253,-0.064 -5.421,-0.191c-1.167,-0.127 -2.044,-0.353 -2.633,-0.679c-0.611,-0.349 -1.034,-0.81 -1.269,-1.382c-0.233,-0.572 -0.351,-1.441 -0.351,-2.608l0,-0.762Z" style="fill:#8cf3f7;fill-rule:nonzero;"/></g><g><path d="M76.813,68.48l-10.392,0l8.581,-54.177l-7.85,0l-8.581,54.177l-10.572,0l8.818,-55.677c0.441,-2.782 1.532,-4.944 3.273,-6.486c1.742,-1.546 3.959,-2.317 6.652,-2.317l8.939,0c1.937,0 3.354,0.546 4.257,1.634c0.9,1.092 1.196,2.616 0.884,4.585c0.316,-1.997 1.09,-3.532 2.317,-4.606c1.229,-1.074 2.797,-1.613 4.703,-1.613l8.939,0c2.694,0 4.681,0.771 5.963,2.317c1.284,1.542 1.706,3.704 1.265,6.486l-8.818,55.677l-10.664,0l8.581,-54.177l-7.714,0l-8.581,54.177Z" style="fill:#009aff;fill-rule:nonzero;"/><path d="M106.985,12.803c0.441,-2.782 1.533,-4.944 3.274,-6.486c1.742,-1.546 3.959,-2.317 6.652,-2.317l11.798,0c2.722,0 4.725,0.771 6.008,2.317c1.283,1.542 1.704,3.704 1.264,6.486l-7.417,46.829c-0.446,2.813 -1.548,4.993 -3.303,6.535c-1.757,1.542 -4.013,2.313 -6.765,2.313l-11.798,0c-2.692,0 -4.665,-0.771 -5.918,-2.313c-1.253,-1.542 -1.658,-3.722 -1.212,-6.535l7.417,-46.829Zm18.064,1.408l-7.714,0l-6.979,44.061l7.714,0l6.979,-44.061Z" style="fill:#009aff;fill-rule:nonzero;"/><path d="M164.379,35.948l-8.437,3.993l7.55,28.539l-11.072,0l-6.249,-23.867l-1.717,0.817l-3.651,23.05l-10.572,0l10.213,-64.48l20.374,0c2.692,0 4.68,0.771 5.963,2.317c1.283,1.542 1.704,3.704 1.264,6.486l-3.666,23.145Zm-9.631,-5.947l2.501,-15.789l-7.85,0l-3.119,19.694l8.468,-3.905Z" style="fill:#009aff;fill-rule:nonzero;"/><path d="M187.75,68.48l-25.547,0l10.213,-64.48l25.547,0l-1.632,10.303l-14.975,0l-2.637,16.652l16.168,-7.532l-1.825,11.525l-16.183,7.623l-2.472,15.61l14.975,0l-1.631,10.3Z" style="fill:#009aff;fill-rule:nonzero;"/><path d="M200.211,68.48l-10.483,0l10.213,-64.48l10.483,0l-0.76,5.085c0.54,-1.694 1.391,-2.965 2.555,-3.813c1.162,-0.845 2.621,-1.271 4.376,-1.271l3.629,0c2.692,0 4.681,0.771 5.963,2.317c1.284,1.542 1.704,3.704 1.264,6.486l-8.818,55.677l-10.572,0l8.581,-54.177l-7.85,0l-8.581,54.177Z" style="fill:#009aff;fill-rule:nonzero;"/><path d="M246.337,29.821l2.472,-15.61l-7.85,0l-3.076,19.419l8.453,-3.81Zm4.45,38.659l-10.573,0l4.327,-27.318l-8.483,3.997l-3.694,23.321l-10.573,0l8.818,-55.677c0.441,-2.782 1.532,-4.944 3.273,-6.486c1.743,-1.546 3.959,-2.317 6.652,-2.317l11.844,0c2.692,0 4.681,0.771 5.963,2.317c1.284,1.542 1.706,3.704 1.265,6.486l-8.818,55.677Z" style="fill:#009aff;fill-rule:nonzero;"/></g><path d="M0,75l37,-3l3,-72l2,72l218,3l-218,2.25l-2,36.75l-3,-36.75l-37,-2.25Z" style="fill:#009aff;"/></g></g></g></svg>