<?xml version="1.0" encoding="UTF-8" standalone="no"?>
<!DOCTYPE svg PUBLIC "-//W3C//DTD SVG 1.1//EN" "http://www.w3.org/Graphics/SVG/1.1/DTD/svg11.dtd">
<svg width="100%" height="100%" viewBox="0 0 523 155" version="1.1" xmlns="http://www.w3.org/2000/svg" xmlns:xlink="http://www.w3.org/1999/xlink" xml:space="preserve" xmlns:serif="http://www.serif.com/" style="fill-rule:evenodd;clip-rule:evenodd;stroke-linejoin:round;stroke-miterlimit:2;">
    <g transform="matrix(1,0,0,1,-57.6341,-49)">
        <g>
            <g id="Star_Trek">
                <g>
                    <path d="M92.6,49L115.1,49C125.4,49 130.5,55.6 128.7,67.3L128.2,70.6L106,82.2L107.9,70.3L93.2,70.3L87.9,104L126,84.3L113.3,164.5C111.4,176.3 104.2,182.8 93.9,182.8L71.4,182.8C61.1,182.8 56.2,176.2 58,164.5L60,152L82,140.6L78.7,161.6L93.4,161.6L100.1,119.6L62.1,139.4L73.5,67.3C75.3,55.6 82.4,49 92.6,49Z" style="fill:rgb(0,154,255);fill-rule:nonzero;"/>
                    <path d="M151.1,70.4L131.3,70.4L134.7,49L194.5,49L191.1,70.4L171.3,70.4L153.5,182.7L133.3,182.7L151.1,70.4Z" style="fill:rgb(0,154,255);fill-rule:nonzero;"/>
                    <path d="M210.7,182.8L219.7,126.1L203.5,134.4L195.8,182.8L175.6,182.8L193.9,67.4C195.8,55.6 202.8,49.1 213.1,49.1L235.6,49.1C245.9,49.1 251,55.7 249.2,67.4L230.9,182.8L210.7,182.8ZM228.5,70.2L213.6,70.2L207.2,110.5L223.3,102.6L228.5,70.2Z" style="fill:rgb(0,154,255);fill-rule:nonzero;"/>
                    <g transform="matrix(1,0,0,1,-8,0)">
                        <path d="M295.3,123.6L308.9,182.8L287.8,182.8L276.5,133.3L273.2,135L265.6,182.8L245.4,182.8L266.8,49L305.6,49C315.9,49 321,55.6 319.2,67.3L311.6,115.3L295.3,123.6ZM298.4,70.2L283.5,70.2L277,111.1L293.2,103L298.4,70.2Z" style="fill:rgb(0,154,255);fill-rule:nonzero;"/>
                    </g>
                    <g transform="matrix(1,0,0,1,-29,0)">
                        <path d="M380.6,70.4L360.8,70.4L364.2,49L424,49L420.6,70.4L400.8,70.4L383,182.8L362.8,182.8L380.6,70.4Z" style="fill:rgb(0,154,255);fill-rule:nonzero;"/>
                    </g>
                    <g transform="matrix(1,0,0,1,-30,0)">
                        <path d="M456.6,123.6L470.2,182.8L449.1,182.8L437.8,133.3L434.5,135L426.9,182.8L406.7,182.8L428,49L466.8,49C477.1,49 482.2,55.6 480.4,67.3L472.8,115.3L456.6,123.6ZM459.7,70.2L444.8,70.2L438.3,111.1L454.5,103L459.7,70.2Z" style="fill:rgb(0,154,255);fill-rule:nonzero;"/>
                    </g>
                    <g transform="matrix(1,0,0,1,-34,0)">
                        <path d="M476.5,182.8L497.6,49L546.3,49L542.9,70.4L514.4,70.4L508.9,104.9L539.9,89.3L536.1,113.2L505.1,129L500,161.4L528.5,161.4L525.1,182.8L476.5,182.8Z" style="fill:rgb(0,154,255);fill-rule:nonzero;"/>
                    </g>
                    <g transform="matrix(1,0,0,1,-37,0)">
                        <path d="M535.3,182.8L556.4,49L576.4,49L568.6,98.1L596.6,49L617.8,49L585.6,105.1L602.5,182.8L581.4,182.8L571.2,126.5L561.3,144.6L555.3,182.8L535.3,182.8Z" style="fill:rgb(0,154,255);fill-rule:nonzero;"/>
                    </g>
                </g>
            </g>
        </g>
    </g>
    <g transform="matrix(3.21776,0,0,1,-218.848,-70)">
        <path d="M68.634,211.67L75.704,211.67L75.704,215.068L73.106,215.068L73.106,225L71.236,225L71.236,215.068L68.634,215.068L68.634,211.67Z" style="fill:rgb(140,243,247);fill-rule:nonzero;"/>
        <path d="M76.115,211.67L77.985,211.67L77.985,216.436L82.004,216.436L82.004,211.67L83.874,211.67L83.874,225L82.004,225L82.004,220.166L77.985,220.166L77.985,225L76.115,225L76.115,211.67Z" style="fill:rgb(140,243,247);fill-rule:nonzero;"/>
        <path d="M84.692,211.67L91.163,211.67L91.163,214.805L86.447,214.805L86.447,216.729L90.923,216.729L90.923,219.658L86.447,219.658L86.447,221.797L91.197,221.797L91.197,225L84.692,225L84.692,211.67Z" style="fill:rgb(140,243,247);fill-rule:nonzero;"/>
        <path d="M98.435,225L98.435,211.67L102.736,211.67C103.746,211.676 104.351,211.701 104.551,211.743C104.751,211.785 104.943,211.937 105.129,212.197C105.351,212.503 105.504,212.925 105.587,213.462C105.669,213.999 105.711,214.844 105.711,215.996C105.711,216.966 105.684,217.679 105.631,218.135C105.579,218.59 105.48,218.955 105.334,219.229C105.177,219.521 104.94,219.723 104.624,219.834C104.997,219.899 105.266,220.143 105.428,220.566C105.522,220.82 105.582,221.128 105.608,221.489C105.634,221.851 105.646,222.607 105.646,223.76L105.646,225L103.892,225L103.892,224.287C103.892,223.545 103.88,223.016 103.855,222.7C103.831,222.384 103.786,222.142 103.721,221.973C103.655,221.816 103.564,221.717 103.449,221.675C103.333,221.632 103.091,221.611 102.723,221.611L100.215,221.611L100.215,225L98.435,225ZM100.215,218.281L102.719,218.281C103.156,218.262 103.416,218.244 103.5,218.228C103.584,218.211 103.656,218.161 103.716,218.076C103.793,217.965 103.847,217.801 103.879,217.583C103.91,217.365 103.926,217.035 103.926,216.592C103.926,216.156 103.908,215.83 103.872,215.615C103.837,215.4 103.775,215.244 103.686,215.146C103.624,215.081 103.549,215.042 103.462,215.029C103.375,215.016 103.126,215.007 102.715,215L100.215,215L100.215,218.281Z" style="fill:rgb(140,243,247);fill-rule:nonzero;"/>
        <path d="M110.243,211.475C111.504,211.475 112.371,211.546 112.845,211.689C113.527,211.898 113.945,212.637 114.099,213.906C114.205,214.779 114.257,216.253 114.257,218.33C114.257,220.413 114.205,221.891 114.099,222.764C113.945,224.033 113.527,224.772 112.845,224.98C112.371,225.124 111.51,225.195 110.26,225.195C108.988,225.195 108.114,225.124 107.641,224.98C106.959,224.772 106.541,224.033 106.387,222.764C106.281,221.891 106.228,220.387 106.228,218.252C106.228,216.221 106.281,214.772 106.387,213.906C106.541,212.637 106.959,211.898 107.641,211.689C108.112,211.546 108.979,211.475 110.243,211.475ZM110.247,214.941C109.303,214.941 108.735,214.997 108.544,215.107C108.324,215.238 108.18,215.529 108.112,215.981C108.043,216.434 108.009,217.334 108.009,218.682C108.009,219.495 108.027,220.085 108.065,220.449C108.136,221.126 108.351,221.514 108.711,221.611C108.976,221.689 109.491,221.729 110.256,221.729C110.972,221.729 111.448,221.699 111.685,221.641C111.922,221.582 112.098,221.452 112.212,221.25C112.314,221.068 112.384,220.799 112.421,220.444C112.458,220.09 112.477,219.508 112.477,218.701C112.477,217.744 112.463,217.041 112.434,216.592C112.406,216.143 112.354,215.804 112.28,215.576C112.186,215.29 112.03,215.112 111.814,215.044C111.597,214.976 111.075,214.941 110.247,214.941Z" style="fill:rgb(140,243,247);fill-rule:nonzero;"/>
        <path d="M114.959,211.67L116.83,211.67L116.83,221.602L120.985,221.602L120.985,225L114.959,225L114.959,211.67Z" style="fill:rgb(140,243,247);fill-rule:nonzero;"/>
        <path d="M121.392,211.67L127.863,211.67L127.863,214.805L123.147,214.805L123.147,216.729L127.623,216.729L127.623,219.658L123.147,219.658L123.147,221.797L127.897,221.797L127.897,225L121.392,225L121.392,211.67Z" style="fill:rgb(140,243,247);fill-rule:nonzero;"/>
        <path d="M135.135,225L135.135,211.67L139.137,211.67C139.93,211.67 140.44,211.706 140.669,211.777C141.248,211.953 141.639,212.378 141.843,213.052C142.047,213.726 142.149,214.928 142.149,216.66C142.149,218.307 142.065,219.463 141.897,220.127C141.783,220.576 141.623,220.918 141.418,221.152C141.212,221.387 140.931,221.549 140.575,221.641C140.321,221.706 139.847,221.738 139.154,221.738L136.915,221.738L136.915,225L135.135,225ZM136.915,218.408L139.141,218.408C139.546,218.402 139.793,218.389 139.883,218.369C139.973,218.35 140.054,218.298 140.125,218.213C140.216,218.102 140.279,217.935 140.313,217.71C140.348,217.485 140.365,217.135 140.365,216.66C140.365,216.185 140.343,215.837 140.301,215.615C140.258,215.394 140.182,215.234 140.074,215.137C139.994,215.065 139.683,215.02 139.141,215L136.915,215L136.915,218.408Z" style="fill:rgb(140,243,247);fill-rule:nonzero;"/>
        <path d="M142.736,211.67L144.606,211.67L144.606,221.602L148.762,221.602L148.762,225L142.736,225L142.736,211.67Z" style="fill:rgb(140,243,247);fill-rule:nonzero;"/>
        <path d="M155.862,225L155.361,222.744L151.497,222.744L150.996,225L148.963,225L152.062,211.67L154.826,211.67L157.882,225L155.862,225ZM154.736,219.824L153.611,214.775L153.256,214.775L152.13,219.824L154.736,219.824Z" style="fill:rgb(140,243,247);fill-rule:nonzero;"/>
        <path d="M156.474,211.67L158.815,211.67L160.72,217.012L162.543,211.67L164.862,211.67L161.665,220.283L161.665,225L159.825,225L159.825,220.283L156.474,211.67Z" style="fill:rgb(140,243,247);fill-rule:nonzero;"/>
        <rect x="165.098" y="211.67" width="1.87" height="13.33" style="fill:rgb(140,243,247);fill-rule:nonzero;"/>
        <path d="M167.786,211.67L170.905,211.67L173.966,221.611L174.15,221.611L174.107,211.67L175.917,211.67L175.917,225L172.823,225L169.75,215.059L169.557,215.059L169.596,225L167.786,225L167.786,211.67Z" style="fill:rgb(140,243,247);fill-rule:nonzero;"/>
        <path d="M180.283,217.441L184.353,217.441C184.358,217.656 184.361,217.777 184.361,217.803C184.361,219.684 184.34,221.1 184.297,222.051C184.229,223.587 183.846,224.518 183.15,224.844C182.85,224.98 182.507,225.073 182.121,225.122C181.734,225.171 181.144,225.195 180.351,225.195C179.347,225.195 178.636,225.133 178.22,225.01C177.803,224.886 177.474,224.639 177.231,224.268C177.066,224.014 176.939,223.688 176.85,223.291C176.762,222.894 176.7,222.37 176.666,221.719C176.632,221.113 176.615,219.915 176.615,218.125C176.615,216.908 176.629,215.99 176.658,215.371C176.686,214.753 176.742,214.199 176.824,213.711C176.993,212.682 177.351,212.057 177.899,211.836C178.498,211.595 179.418,211.475 180.659,211.475C181.395,211.475 181.977,211.517 182.405,211.602C182.833,211.686 183.186,211.826 183.462,212.021C183.91,212.34 184.181,213.031 184.276,214.092C184.321,214.619 184.345,215.345 184.348,216.27L182.568,216.27C182.565,215.892 182.555,215.636 182.538,215.503C182.521,215.369 182.485,215.257 182.431,215.166C182.331,215.003 182.123,214.902 181.806,214.863C181.507,214.824 181.073,214.805 180.505,214.805C179.889,214.805 179.449,214.837 179.185,214.902C178.921,214.967 178.74,215.088 178.643,215.264C178.546,215.446 178.481,215.744 178.447,216.157C178.412,216.571 178.395,217.279 178.395,218.281C178.395,219.408 178.412,220.194 178.447,220.64C178.481,221.086 178.546,221.4 178.643,221.582C178.74,221.758 178.867,221.864 179.022,221.899C179.178,221.935 179.669,221.966 180.497,221.992C181.307,221.979 181.799,221.961 181.973,221.938C182.147,221.916 182.287,221.855 182.392,221.758C182.478,221.673 182.539,221.535 182.574,221.343C182.61,221.151 182.628,220.863 182.628,220.479C182.628,220.42 182.626,220.296 182.624,220.107L180.283,220.107L180.283,217.441Z" style="fill:rgb(140,243,247);fill-rule:nonzero;"/>
        <path d="M195.292,217.441L199.363,217.441C199.368,217.656 199.371,217.777 199.371,217.803C199.371,219.684 199.35,221.1 199.307,222.051C199.238,223.587 198.856,224.518 198.16,224.844C197.86,224.98 197.517,225.073 197.131,225.122C196.744,225.171 196.154,225.195 195.361,225.195C194.357,225.195 193.646,225.133 193.23,225.01C192.813,224.886 192.483,224.639 192.241,224.268C192.075,224.014 191.948,223.688 191.86,223.291C191.772,222.894 191.71,222.37 191.676,221.719C191.642,221.113 191.625,219.915 191.625,218.125C191.625,216.908 191.639,215.99 191.667,215.371C191.696,214.753 191.752,214.199 191.834,213.711C192.003,212.682 192.361,212.057 192.909,211.836C193.508,211.595 194.428,211.475 195.669,211.475C196.405,211.475 196.987,211.517 197.415,211.602C197.843,211.686 198.196,211.826 198.472,212.021C198.92,212.34 199.191,213.031 199.285,214.092C199.331,214.619 199.355,215.345 199.358,216.27L197.578,216.27C197.575,215.892 197.565,215.636 197.548,215.503C197.531,215.369 197.495,215.257 197.441,215.166C197.341,215.003 197.133,214.902 196.816,214.863C196.516,214.824 196.083,214.805 195.515,214.805C194.899,214.805 194.459,214.837 194.195,214.902C193.931,214.967 193.75,215.088 193.653,215.264C193.556,215.446 193.491,215.744 193.456,216.157C193.422,216.571 193.405,217.279 193.405,218.281C193.405,219.408 193.422,220.194 193.456,220.64C193.491,221.086 193.556,221.4 193.653,221.582C193.75,221.758 193.877,221.864 194.032,221.899C194.188,221.935 194.679,221.966 195.506,221.992C196.317,221.979 196.809,221.961 196.983,221.938C197.157,221.916 197.297,221.855 197.402,221.758C197.488,221.673 197.549,221.535 197.584,221.343C197.62,221.151 197.638,220.863 197.638,220.479C197.638,220.42 197.636,220.296 197.633,220.107L195.292,220.107L195.292,217.441Z" style="fill:rgb(140,243,247);fill-rule:nonzero;"/>
        <path d="M206.334,225L205.834,222.744L201.969,222.744L201.468,225L199.435,225L202.534,211.67L205.299,211.67L208.354,225L206.334,225ZM205.209,219.824L204.083,214.775L203.728,214.775L202.602,219.824L205.209,219.824Z" style="fill:rgb(140,243,247);fill-rule:nonzero;"/>
        <path d="M208.62,211.67L211.847,211.67L213.584,220.322L215.322,211.67L218.532,211.67L218.532,225L216.777,225L216.82,215.02L216.529,215.02L214.325,225L212.848,225L210.644,215.02L210.332,215.02L210.374,225L208.62,225L208.62,211.67Z" style="fill:rgb(140,243,247);fill-rule:nonzero;"/>
        <path d="M219.349,211.67L225.82,211.67L225.82,214.805L221.104,214.805L221.104,216.729L225.581,216.729L225.581,219.658L221.104,219.658L221.104,221.797L225.854,221.797L225.854,225L219.349,225L219.349,211.67Z" style="fill:rgb(140,243,247);fill-rule:nonzero;"/>
    </g>
</svg>
