<svg width="29" height="40" viewBox="0 0 29 40" fill="none" xmlns="http://www.w3.org/2000/svg">
<path d="M28.0274 38.3533L26.4151 40H1.81818L0 38.3533V1.9554L1.85249 0H26.0377L28.0274 1.88679V38.3533ZM27.1698 37.976V2.26415L25.6604 0.857634H2.22985L0.857633 2.33276V38.0103L2.12693 39.1424H26.0377L27.1698 37.976ZM25.6261 13.6192H21.3036V26.1063H25.3859L14.3396 37.1527L3.05317 25.6261H6.17496V13.8593H2.33276L13.8593 2.09262L25.6261 13.6192ZM15.3002 9.77701C15.5746 9.43396 15.7118 9.03373 15.7118 8.57633C15.7118 7.9817 15.4946 7.50143 15.06 7.13551C14.717 6.86106 14.3168 6.72384 13.8593 6.72384C13.2647 6.72384 12.7844 6.94111 12.4185 7.37564C12.1441 7.7187 12.0069 8.11892 12.0069 8.57633C12.0069 9.17096 12.2241 9.65123 12.6587 10.0172C13.0017 10.2916 13.4019 10.4288 13.8593 10.4288C14.454 10.4288 14.9342 10.2115 15.3002 9.77701ZM18.5935 14.2024C18.6163 14.1109 18.6278 14.0423 18.6278 13.9966C18.6507 13.8136 18.6621 13.6535 18.6621 13.5163C18.6621 13.1732 18.6278 12.8874 18.5592 12.6587C18.5134 12.43 18.3876 12.247 18.1818 12.1098C17.9989 11.9497 17.7587 11.8582 17.4614 11.8353C17.187 11.8125 16.924 11.801 16.6724 11.801H11.6981C11.6295 11.801 11.5723 11.801 11.5266 11.801C11.3665 11.801 11.2064 11.7896 11.0463 11.7667C10.8176 11.7667 10.6232 11.7896 10.4631 11.8353C10.303 11.8582 10.1544 11.9268 10.0172 12.0412C9.87993 12.1326 9.77702 12.3042 9.7084 12.5557C9.63979 12.7844 9.60549 13.0131 9.60549 13.2419C9.60549 13.5163 9.61692 13.745 9.63979 13.928C9.63979 13.9966 9.66266 14.0881 9.7084 14.2024H18.5935ZM19.0394 19.3825L18.9708 17.8388L17.9074 17.8731L18.319 19.3139L19.0394 19.3825ZM18.8679 16.5695L18.6964 15.1286H9.7084L9.60549 16.5695H18.8679ZM19.2453 20.6861L18.6964 20.789L19.0738 21.8182L19.2453 20.6861ZM17.2213 17.7358L11.458 17.7702L11.5952 19.2453H16.9468L17.2213 17.7358ZM17.1184 21.8525L17.084 20.7547H11.6295L11.6638 21.8525H17.1184ZM17.0497 23.8422V23.2933H14.9228L15.06 23.8765L17.0497 23.8422ZM10.7376 17.7358L9.50257 17.7015L9.22813 19.1767L9.94854 19.2796L10.7376 17.7358ZM17.0154 25.2487H15.3688L15.5403 25.7633H16.9811L17.0154 25.2487ZM13.7564 23.3619H11.5609L11.5266 23.8765H13.5163L13.7564 23.3619ZM16.9811 27.7873V27.307H15.8834L16.0892 27.7873H16.9811ZM9.60549 20.7547L9.0566 20.6861L9.0223 21.8868L9.60549 20.7547ZM16.9125 29.1938H16.5352L16.9125 30.0172V29.1938ZM13.2419 25.3173H11.4237V25.7633H13.0703L13.2419 25.3173ZM12.5901 27.2384H11.3551V27.753H12.3499L12.5901 27.2384ZM11.7324 29.1938H11.2864L11.2521 29.9142L11.7324 29.1938Z" fill="#333333"/>
<path d="M15.3002 9.77702C15.5746 9.43397 15.7118 9.03374 15.7118 8.57633C15.7118 7.98171 15.4946 7.50143 15.06 7.13551C14.717 6.86107 14.3167 6.72385 13.8593 6.72385C13.2647 6.72385 12.7844 6.94111 12.4185 7.37565C12.1441 7.7187 12.0069 8.11893 12.0069 8.57633C12.0069 9.17096 12.2241 9.65123 12.6587 10.0172C13.0017 10.2916 13.4019 10.4288 13.8593 10.4288C14.454 10.4288 14.9342 10.2116 15.3002 9.77702ZM18.5935 14.2024C18.6163 14.1109 18.6278 14.0423 18.6278 13.9966C18.6507 13.8136 18.6621 13.6535 18.6621 13.5163C18.6621 13.1732 18.6278 12.8874 18.5592 12.6587C18.5134 12.43 18.3876 12.247 18.1818 12.1098C17.9988 11.9497 17.7587 11.8582 17.4614 11.8353C17.187 11.8125 16.9239 11.801 16.6724 11.801H11.6981C11.6295 11.801 11.5723 11.801 11.5266 11.801C11.3665 11.801 11.2064 11.7896 11.0463 11.7667C10.8176 11.7667 10.6232 11.7896 10.4631 11.8353C10.303 11.8582 10.1544 11.9268 10.0171 12.0412C9.87993 12.1327 9.77701 12.3042 9.7084 12.5558C9.63979 12.7845 9.60548 13.0132 9.60548 13.2419C9.60548 13.5163 9.61692 13.745 9.63979 13.928C9.63979 13.9966 9.66266 14.0881 9.7084 14.2024H18.5935ZM19.0394 19.3825L18.9708 17.8388L17.9074 17.8731L18.319 19.3139L19.0394 19.3825ZM18.8679 16.5695L18.6964 15.1287H9.7084L9.60548 16.5695H18.8679ZM19.2453 20.6861L18.6964 20.789L19.0737 21.8182L19.2453 20.6861ZM17.2213 17.7359L11.458 17.7702L11.5952 19.2453H16.9468L17.2213 17.7359ZM17.1183 21.8525L17.084 20.7547H11.6295L11.6638 21.8525H17.1183ZM17.0497 23.8422V23.2933H14.9228L15.06 23.8765L17.0497 23.8422ZM10.7376 17.7359L9.50257 17.7015L9.22812 19.1767L9.94854 19.2796L10.7376 17.7359ZM17.0154 25.2487H15.3688L15.5403 25.7633H16.9811L17.0154 25.2487ZM13.7564 23.3619H11.5609L11.5266 23.8765H13.5163L13.7564 23.3619ZM16.9811 27.7873V27.307H15.8834L16.0892 27.7873H16.9811ZM9.60548 20.7547L9.0566 20.6861L9.02229 21.8868L9.60548 20.7547ZM16.9125 29.1938H16.5352L16.9125 30.0172V29.1938ZM13.2418 25.3173H11.4237V25.7633H13.0703L13.2418 25.3173ZM12.59 27.2384H11.3551V27.753H12.3499L12.59 27.2384ZM11.7324 29.1938H11.2864L11.2521 29.9142L11.7324 29.1938Z" fill="#F8F800"/>
</svg>
