<svg width="51" height="40" viewBox="0 0 51 40" fill="none" xmlns="http://www.w3.org/2000/svg">
<path d="M38.8739 6.03509C40.2774 7.67251 41.3301 9.46199 42.0318 11.4035C42.757 13.345 43.1195 15.345 43.1195 17.4035C43.1195 19.9064 42.6049 22.3041 41.5757 24.5965C40.5698 26.8655 39.0728 28.8538 37.0844 30.5614C35.447 31.9649 33.6575 33.0292 31.716 33.7544C29.7745 34.4561 27.7745 34.807 25.716 34.807C23.2131 34.807 20.8154 34.3041 18.523 33.2982C16.254 32.269 14.2657 30.7602 12.5581 28.7719C11.1546 27.1345 10.0903 25.345 9.36515 23.4035C8.66339 21.462 8.31252 19.462 8.31252 17.4035C8.31252 14.9006 8.81544 12.5146 9.82129 10.2456C10.8505 7.95322 12.3593 5.95322 14.3476 4.24561C15.985 2.84211 17.7745 1.78947 19.716 1.08772C21.6575 0.362573 23.6575 0 25.716 0C28.219 0 30.6049 0.514619 32.8739 1.54386C35.1663 2.54971 37.1663 4.04678 38.8739 6.03509ZM37.716 6.77193C36.1722 4.99415 34.3476 3.64912 32.2423 2.73684C30.1605 1.80117 27.985 1.33333 25.716 1.33333C23.8213 1.33333 21.9616 1.67251 20.1371 2.35088C18.3359 3.00585 16.6868 3.9883 15.1897 5.29825C13.4119 6.84211 12.0552 8.66667 11.1195 10.7719C10.2073 12.8538 9.75111 15.0292 9.75111 17.2982C9.75111 19.193 10.0786 21.0526 10.7336 22.8772C11.4119 24.6784 12.4061 26.3275 13.716 27.8246C15.2599 29.6023 17.0728 30.9591 19.1546 31.8947C21.2599 32.807 23.447 33.2632 25.716 33.2632C27.6108 33.2632 29.4587 32.9357 31.2599 32.2807C33.0844 31.6023 34.7453 30.6082 36.2423 29.2982C38.0201 27.7544 39.3651 25.9415 40.2774 23.8596C41.2131 21.7544 41.6809 19.5673 41.6809 17.2982C41.6809 15.4035 41.3418 13.5556 40.6634 11.7544C40.0084 9.92982 39.026 8.269 37.716 6.77193Z" fill="#333333"/>
<ellipse cx="25.8213" cy="17.193" rx="14.8421" ry="14.8421" fill="white"/>
<path fill-rule="evenodd" clip-rule="evenodd" d="M37.295 7.82458C39.5406 10.6082 40.6634 13.731 40.6634 17.193C40.6634 19.4152 40.1956 21.5205 39.2599 23.5088C38.3476 25.4737 36.9909 27.193 35.1897 28.6667C32.4061 30.9123 29.2833 32.0351 25.8213 32.0351C23.5991 32.0351 21.4938 31.579 19.5055 30.6667C17.5406 29.731 15.8213 28.3626 14.3476 26.5614C12.102 23.7778 10.9792 20.655 10.9792 17.193C10.9792 14.9708 11.4353 12.8772 12.3476 10.9123C13.2833 8.92399 14.6517 7.193 16.4529 5.71931C19.2365 3.4737 22.3593 2.35089 25.8213 2.35089C28.0435 2.35089 30.1371 2.81873 32.102 3.7544C34.0903 4.66668 35.8213 6.02341 37.295 7.82458ZM34.2073 6.49124C34.3944 6.35089 34.5581 6.37428 34.6985 6.56142C34.8388 6.74855 34.8155 6.91229 34.6283 7.05264C34.4412 7.193 34.2774 7.1696 34.1371 6.98247C33.9967 6.79533 34.0201 6.63159 34.2073 6.49124ZM38.1722 11.1579C38.4295 11.1579 38.6049 11.2398 38.6985 11.4035C38.7687 11.4737 38.8038 11.579 38.8038 11.7193C38.8038 11.9766 38.7219 12.1521 38.5581 12.2456C38.488 12.3158 38.3827 12.3509 38.2424 12.3509C37.985 12.3509 37.8096 12.269 37.716 12.1053C37.6459 12.0351 37.6108 11.9298 37.6108 11.7895C37.6108 11.5322 37.6927 11.3567 37.8564 11.2632C37.9266 11.193 38.0318 11.1579 38.1722 11.1579ZM35.7511 9.15791C36.0552 8.97077 36.3125 9.04095 36.5231 9.36843C36.7102 9.67253 36.64 9.92984 36.3125 10.1404C36.0084 10.3275 35.7511 10.2573 35.5406 9.92984C35.3535 9.62574 35.4236 9.36843 35.7511 9.15791ZM30.7336 3.89475C30.7336 4.01171 30.6751 4.12867 30.5581 4.24563C30.4412 4.36259 30.3242 4.42106 30.2073 4.42106C30.0903 4.42106 29.9734 4.36259 29.8564 4.24563C29.7628 4.15206 29.716 4.0351 29.716 3.89475C29.716 3.7544 29.7628 3.63744 29.8564 3.54387C29.95 3.45031 30.0669 3.40352 30.2073 3.40352C30.3476 3.40352 30.4646 3.45031 30.5581 3.54387C30.6751 3.66083 30.7336 3.77779 30.7336 3.89475ZM34.2073 9.71931C34.6985 9.57896 35.0026 9.7427 35.1196 10.2105C35.2599 10.7018 35.0962 11.0059 34.6283 11.1228C34.1371 11.2632 33.833 11.0994 33.716 10.6316C33.5757 10.1404 33.7394 9.83627 34.2073 9.71931ZM27.6108 3.71931C27.7979 3.71931 27.9383 3.80118 28.0318 3.96492C28.102 4.0351 28.1371 4.12867 28.1371 4.24563C28.1371 4.43276 28.0552 4.57311 27.8915 4.66668C27.8213 4.73686 27.7277 4.77194 27.6108 4.77194C27.4236 4.77194 27.2833 4.69007 27.1897 4.52633C27.1195 4.45615 27.0845 4.36259 27.0845 4.24563C27.0845 4.05849 27.1663 3.91814 27.3301 3.82457C27.4003 3.7544 27.4938 3.71931 27.6108 3.71931ZM38.1371 14.9123C38.5815 14.7252 38.8856 14.8421 39.0494 15.2632C39.2365 15.7076 39.1196 16.0117 38.6985 16.1755C38.2541 16.3626 37.95 16.2456 37.7862 15.8246C37.5991 15.3801 37.716 15.076 38.1371 14.9123ZM36.488 13.6842C36.7453 13.6842 36.9207 13.7661 37.0143 13.9298C37.0845 14 37.1196 14.1053 37.1196 14.2456C37.1196 14.5029 37.0377 14.6784 36.8739 14.7719C36.8038 14.8421 36.6985 14.8772 36.5581 14.8772C36.3008 14.8772 36.1254 14.7953 36.0318 14.6316C35.9617 14.5614 35.9266 14.4562 35.9266 14.3158C35.9266 14.0585 36.0084 13.8831 36.1722 13.7895C36.2424 13.7193 36.3476 13.6842 36.488 13.6842ZM34.3476 12.5263C34.5348 12.4328 34.6751 12.4795 34.7687 12.6667C34.8622 12.8538 34.8155 12.9942 34.6283 13.0877C34.4412 13.1813 34.3008 13.1345 34.2073 12.9474C34.1137 12.7602 34.1605 12.6199 34.3476 12.5263ZM33.3301 12.386C33.3301 12.5029 33.295 12.5965 33.2248 12.6667C33.1546 12.7369 33.0611 12.7719 32.9441 12.7719C32.8272 12.7719 32.7336 12.7369 32.6634 12.6667C32.5932 12.5965 32.5581 12.5029 32.5581 12.386C32.5581 12.269 32.5932 12.1755 32.6634 12.1053C32.7336 12.0351 32.8272 12 32.9441 12C33.0611 12 33.1546 12.0351 33.2248 12.1053C33.295 12.1755 33.3301 12.269 33.3301 12.386ZM30.4178 11.4035C30.6517 11.2164 30.8622 11.2398 31.0494 11.4737C31.2365 11.7076 31.2131 11.9181 30.9792 12.1053C30.7453 12.2924 30.5348 12.269 30.3476 12.0351C30.1605 11.8012 30.1839 11.5907 30.4178 11.4035ZM37.1546 18C37.4587 17.8129 37.716 17.8831 37.9266 18.2105C38.1137 18.5146 38.0435 18.7719 37.716 18.9825C37.4119 19.1696 37.1546 19.0994 36.9441 18.7719C36.757 18.4678 36.8272 18.2105 37.1546 18ZM33.9266 14.9123C34.2307 14.7252 34.488 14.7953 34.6985 15.1228C34.8856 15.4269 34.8155 15.6842 34.488 15.8948C34.1839 16.0819 33.9266 16.0117 33.716 15.6842C33.5289 15.3801 33.5991 15.1228 33.9266 14.9123ZM31.8213 14.4912C32.102 14.3509 32.3125 14.4211 32.4529 14.7018C32.5932 14.9825 32.5231 15.193 32.2424 15.3333C31.9617 15.4737 31.7511 15.4035 31.6108 15.1228C31.4704 14.8421 31.5406 14.6316 31.8213 14.4912ZM24.3476 6.73685C24.5581 6.73685 24.7336 6.81873 24.8739 6.98247C24.9909 7.09943 25.0494 7.22808 25.0494 7.36844C25.0494 7.57896 24.9792 7.7544 24.8388 7.89475C24.6985 8.01171 24.5581 8.07019 24.4178 8.07019C24.2073 8.07019 24.0318 8.00001 23.8915 7.85966C23.7745 7.71931 23.716 7.57896 23.716 7.43861C23.716 7.22808 23.7862 7.06434 23.9266 6.94738C24.0669 6.80703 24.2073 6.73685 24.3476 6.73685ZM29.9967 13.7895C30.2774 13.6491 30.488 13.7193 30.6283 14C30.7687 14.2807 30.6985 14.4912 30.4178 14.6316C30.1371 14.7719 29.9266 14.7018 29.7862 14.4211C29.6459 14.1404 29.716 13.9298 29.9967 13.7895ZM38.0669 21.5088C38.2307 21.5088 38.371 21.579 38.488 21.7193C38.5815 21.8129 38.6283 21.9298 38.6283 22.0702C38.6283 22.2339 38.5581 22.3743 38.4178 22.4912C38.3242 22.5848 38.2073 22.6316 38.0669 22.6316C37.9032 22.6316 37.7628 22.5614 37.6459 22.4211C37.5523 22.3275 37.5055 22.2105 37.5055 22.0702C37.5055 21.9064 37.5757 21.7661 37.716 21.6491C37.8096 21.5556 37.9266 21.5088 38.0669 21.5088ZM20.102 3.96492C20.2658 3.96492 20.4061 4.0351 20.5231 4.17545C20.6166 4.26902 20.6634 4.38598 20.6634 4.52633C20.6634 4.69007 20.5932 4.83042 20.4529 4.94738C20.3593 5.04095 20.2424 5.08773 20.102 5.08773C19.9383 5.08773 19.7979 5.01756 19.681 4.87721C19.5874 4.78364 19.5406 4.66668 19.5406 4.52633C19.5406 4.36259 19.6108 4.22223 19.7511 4.10528C19.8447 4.01171 19.9617 3.96492 20.102 3.96492ZM30.4529 12.7018C30.6634 12.7719 30.9792 12.8538 31.4003 12.9474C31.0026 12.9942 30.6985 13.0293 30.488 13.0526C29.833 13.1696 29.3535 13.3801 29.0494 13.6842C28.7687 13.9649 28.5581 14.4094 28.4178 15.0176C28.371 15.2281 28.3359 15.5205 28.3125 15.8948C28.2891 15.614 28.2774 15.4035 28.2774 15.2632C28.1839 14.3275 27.9734 13.7076 27.6459 13.4035C27.3418 13.0994 26.9675 12.924 26.5231 12.8772C26.0786 12.807 25.6459 12.7602 25.2248 12.7369C25.6693 12.6901 26.0084 12.6433 26.2424 12.5965C26.9909 12.4328 27.5172 12.1988 27.8213 11.8948C28.1488 11.5673 28.3944 11.1228 28.5581 10.5614C28.6049 10.3743 28.6634 10.0936 28.7336 9.71931V9.78949V10.0702C28.7336 10.3275 28.757 10.6433 28.8038 11.0176C28.8505 11.3684 28.9441 11.6374 29.0845 11.8246C29.3184 12.1755 29.7745 12.4679 30.4529 12.7018ZM32.3827 17.7193C32.6166 17.579 32.8038 17.6257 32.9441 17.8597C33.0845 18.0936 33.0377 18.2807 32.8038 18.4211C32.5698 18.5614 32.3827 18.5146 32.2424 18.2807C32.102 18.0468 32.1488 17.8597 32.3827 17.7193ZM33.6459 19.4035C33.8798 19.2632 34.0669 19.31 34.2073 19.5439C34.3476 19.7778 34.3008 19.9649 34.0669 20.1053C33.833 20.2456 33.6459 20.1988 33.5055 19.9649C33.3652 19.731 33.4119 19.5439 33.6459 19.4035ZM31.8213 17.0877C31.8213 17.2983 31.7745 17.462 31.681 17.579C31.5406 17.7661 31.3301 17.8597 31.0494 17.8597C30.8388 17.8597 30.6517 17.8012 30.488 17.6842C30.3476 17.5673 30.2774 17.3684 30.2774 17.0877C30.2774 16.8772 30.3359 16.7018 30.4529 16.5614C30.5698 16.3977 30.7687 16.3158 31.0494 16.3158C31.2599 16.3158 31.4353 16.3743 31.5757 16.4912C31.7394 16.6082 31.8213 16.807 31.8213 17.0877ZM22.3827 8.70177C22.5932 8.70177 22.7687 8.78364 22.909 8.94738C23.026 9.06434 23.0845 9.19299 23.0845 9.33335C23.0845 9.54387 23.0143 9.71931 22.8739 9.85966C22.7336 9.97662 22.5932 10.0351 22.4529 10.0351C22.2424 10.0351 22.0669 9.96493 21.9266 9.82458C21.8096 9.68422 21.7511 9.54387 21.7511 9.40352C21.7511 9.193 21.8213 9.02925 21.9617 8.91229C22.102 8.77194 22.2424 8.70177 22.3827 8.70177ZM25.0845 13.2281C25.2716 13.0877 25.4353 13.1111 25.5757 13.2983C25.716 13.4854 25.6927 13.6491 25.5055 13.7895C25.3184 13.9298 25.1546 13.9064 25.0143 13.7193C24.8739 13.5322 24.8973 13.3684 25.0845 13.2281ZM28.8739 17.5088C28.8739 17.7193 28.8272 17.8831 28.7336 18C28.5932 18.1871 28.3827 18.2807 28.102 18.2807C27.8915 18.2807 27.7043 18.2222 27.5406 18.1053C27.4002 17.9883 27.3301 17.7895 27.3301 17.5088C27.3301 17.2983 27.3886 17.1228 27.5055 16.9825C27.6225 16.8187 27.8213 16.7369 28.102 16.7369C28.3125 16.7369 28.488 16.7953 28.6283 16.9123C28.7921 17.0293 28.8739 17.2281 28.8739 17.5088ZM20.2424 9.22808C20.4763 9.41522 20.4997 9.62574 20.3125 9.85966C20.1254 10.0936 19.9149 10.117 19.681 9.92984C19.447 9.7427 19.4236 9.53218 19.6108 9.29826C19.7979 9.06434 20.0084 9.04095 20.2424 9.22808ZM25.0845 14.9123C25.3652 14.7719 25.5757 14.8421 25.716 15.1228C25.8564 15.4035 25.7862 15.614 25.5055 15.7544C25.2248 15.8948 25.0143 15.8246 24.8739 15.5439C24.7336 15.2632 24.8038 15.0526 25.0845 14.9123ZM35.3301 25.0176C35.564 25.0176 35.7511 25.1111 35.8915 25.2983C35.985 25.4152 36.0318 25.5556 36.0318 25.7193C36.0318 25.9532 35.95 26.1287 35.7862 26.2456C35.6459 26.3626 35.4938 26.4211 35.3301 26.4211C35.0962 26.4211 34.9207 26.3509 34.8038 26.2105C34.6868 26.0468 34.6283 25.8831 34.6283 25.7193C34.6283 25.4854 34.6985 25.31 34.8389 25.193C35.0026 25.076 35.1663 25.0176 35.3301 25.0176ZM32.2774 21.1579C32.4646 21.1813 32.7336 21.2047 33.0845 21.2281C32.6868 21.2749 32.3944 21.31 32.2073 21.3333C31.6225 21.4503 31.178 21.6608 30.8739 21.9649C30.5932 22.2456 30.3944 22.7135 30.2774 23.3684C30.2541 23.579 30.2307 23.8948 30.2073 24.3158V23.7193C30.1371 22.8304 29.9383 22.2339 29.6108 21.9298C29.3067 21.6024 28.8505 21.3684 28.2424 21.2281C28.0552 21.1813 27.7745 21.1462 27.4003 21.1228C27.7511 21.0994 28.0201 21.0877 28.2073 21.0877C28.8155 21.0176 29.2599 20.8655 29.5406 20.6316C29.8213 20.3977 30.0435 19.9883 30.2073 19.4035C30.2541 19.2164 30.3008 18.9357 30.3476 18.5614L30.4529 19.4035C30.5698 20.0117 30.7453 20.4328 30.9792 20.6667C31.2131 20.9006 31.6459 21.0643 32.2774 21.1579ZM28.5932 19.2632C28.8739 19.4737 28.9207 19.7076 28.7336 19.9649C28.5231 20.2456 28.2891 20.2924 28.0318 20.1053C27.7511 19.8948 27.7043 19.6608 27.8915 19.4035C28.102 19.1228 28.3359 19.076 28.5932 19.2632ZM17.9266 9.15791C17.9266 9.32165 17.8798 9.462 17.7862 9.57896C17.6459 9.7661 17.4587 9.85966 17.2248 9.85966C17.0611 9.85966 16.8973 9.80118 16.7336 9.68422C16.5932 9.56726 16.5231 9.39183 16.5231 9.15791C16.5231 8.99416 16.5815 8.84212 16.6985 8.70177C16.8155 8.53803 16.9909 8.45615 17.2248 8.45615C17.3886 8.45615 17.5406 8.51463 17.681 8.63159C17.8447 8.74855 17.9266 8.92399 17.9266 9.15791ZM25.0845 16.8772C25.3184 16.7369 25.5055 16.7836 25.6459 17.0176C25.7862 17.2515 25.7394 17.4386 25.5055 17.579C25.2716 17.7193 25.0845 17.6725 24.9441 17.4386C24.8038 17.2047 24.8505 17.0176 25.0845 16.8772ZM25.3652 18.4211C25.6225 18.3275 25.7862 18.3977 25.8564 18.6316C25.95 18.8889 25.8798 19.0526 25.6459 19.1228C25.3886 19.2164 25.2248 19.1462 25.1546 18.9123C25.0611 18.655 25.1312 18.4912 25.3652 18.4211ZM25.8915 19.5088C26.102 19.5088 26.2774 19.5907 26.4178 19.7544C26.5348 19.8714 26.5932 20 26.5932 20.1404C26.5932 20.3509 26.5231 20.5263 26.3827 20.6667C26.2424 20.7836 26.102 20.8421 25.9617 20.8421C25.7511 20.8421 25.5757 20.7719 25.4353 20.6316C25.3184 20.4912 25.2599 20.3509 25.2599 20.2105C25.2599 20 25.3301 19.8363 25.4704 19.7193C25.6108 19.579 25.7511 19.5088 25.8915 19.5088ZM26.7687 21.5088C27.0026 21.3217 27.2131 21.345 27.4003 21.579C27.5874 21.8129 27.564 22.0234 27.3301 22.2105C27.0962 22.3977 26.8856 22.3743 26.6985 22.1404C26.5114 21.9064 26.5348 21.6959 26.7687 21.5088ZM23.1195 18.5614C23.3535 18.4211 23.5406 18.4678 23.681 18.7018C23.8213 18.9357 23.7745 19.1228 23.5406 19.2632C23.3067 19.4035 23.1196 19.3567 22.9792 19.1228C22.8388 18.8889 22.8856 18.7018 23.1195 18.5614ZM23.8213 19.9649C24.0552 19.7778 24.2658 19.8012 24.4529 20.0351C24.64 20.269 24.6166 20.4795 24.3827 20.6667C24.1488 20.8538 23.9383 20.8304 23.7511 20.5965C23.564 20.3626 23.5874 20.1521 23.8213 19.9649ZM28.0318 24.5965C28.2657 24.4094 28.4763 24.4328 28.6634 24.6667C28.8505 24.9006 28.8272 25.1111 28.5932 25.2983C28.3593 25.4854 28.1488 25.462 27.9617 25.2281C27.7745 24.9942 27.7979 24.7836 28.0318 24.5965ZM22.6985 17.4386C23.0962 17.4854 23.4704 17.5088 23.8213 17.5088C23.4236 17.579 23.1312 17.6374 22.9441 17.6842C22.3359 17.848 21.9032 18.0468 21.6459 18.2807C21.2014 18.7018 20.909 19.4152 20.7687 20.4211C20.7453 20.5848 20.7336 20.807 20.7336 21.0877C20.7336 20.6199 20.7219 20.269 20.6985 20.0351C20.6049 19.2866 20.4061 18.7486 20.102 18.4211C19.7043 18 19.026 17.7427 18.0669 17.6491H17.4353C17.8798 17.6257 18.219 17.6024 18.4529 17.579C19.2014 17.462 19.7043 17.2749 19.9617 17.0176C20.2424 16.7369 20.4295 16.3743 20.5231 15.9298C20.6166 15.462 20.6634 15.0059 20.6634 14.5614V14.1404C20.7102 14.655 20.757 15.0526 20.8038 15.3333C20.9675 16.1755 21.2248 16.7252 21.5757 16.9825C21.9266 17.2398 22.3008 17.3918 22.6985 17.4386ZM26.909 24.0351C27.2131 23.848 27.4704 23.9181 27.681 24.2456C27.8681 24.5497 27.7979 24.807 27.4704 25.0176C27.1663 25.2047 26.909 25.1345 26.6985 24.807C26.5114 24.5029 26.5815 24.2456 26.909 24.0351ZM25.0845 22.4912C25.3652 22.3509 25.5757 22.4211 25.716 22.7018C25.8564 22.9825 25.7862 23.193 25.5055 23.3333C25.2248 23.4737 25.0143 23.4035 24.8739 23.1228C24.7336 22.8421 24.8038 22.6316 25.0845 22.4912ZM27.9967 26.386C28.2073 26.386 28.3827 26.4679 28.5231 26.6316C28.64 26.7486 28.6985 26.8772 28.6985 27.0176C28.6985 27.2281 28.6283 27.4035 28.488 27.5439C28.3476 27.6608 28.2073 27.7193 28.0669 27.7193C27.8564 27.7193 27.681 27.6491 27.5406 27.5088C27.4236 27.3684 27.3652 27.2281 27.3652 27.0877C27.3652 26.8772 27.4353 26.7135 27.5757 26.5965C27.716 26.4562 27.8564 26.386 27.9967 26.386ZM25.4003 23.9649C25.4003 24.0819 25.3418 24.1988 25.2248 24.3158C25.1079 24.4328 24.9909 24.4912 24.8739 24.4912C24.757 24.4912 24.64 24.4328 24.5231 24.3158C24.4295 24.2222 24.3827 24.1053 24.3827 23.9649C24.3827 23.8246 24.4295 23.7076 24.5231 23.6141C24.6166 23.5205 24.7336 23.4737 24.8739 23.4737C25.0143 23.4737 25.1312 23.5205 25.2248 23.6141C25.3418 23.731 25.4003 23.848 25.4003 23.9649ZM17.7511 18.2807C17.985 18.1871 18.1839 18.2339 18.3476 18.4211C18.4412 18.5146 18.4646 18.6433 18.4178 18.807C18.3944 18.9474 18.3242 19.0526 18.2073 19.1228C18.1371 19.193 18.0435 19.2281 17.9266 19.2281C17.7394 19.2281 17.5991 19.1462 17.5055 18.9825C17.4353 18.8421 17.4236 18.7018 17.4704 18.5614C17.5172 18.4211 17.6108 18.3275 17.7511 18.2807ZM25.7862 26.5965C25.9734 26.5965 26.1137 26.6784 26.2073 26.8421C26.2774 26.9123 26.3125 27.0059 26.3125 27.1228C26.3125 27.31 26.2307 27.4503 26.0669 27.5439C25.9967 27.6141 25.9032 27.6491 25.7862 27.6491C25.5991 27.6491 25.4587 27.5673 25.3652 27.4035C25.295 27.3333 25.2599 27.2398 25.2599 27.1228C25.2599 26.9357 25.3418 26.7953 25.5055 26.7018C25.5757 26.6316 25.6693 26.5965 25.7862 26.5965ZM19.7511 21.3684C19.985 21.2281 20.1722 21.2749 20.3125 21.5088C20.4529 21.7427 20.4061 21.9298 20.1722 22.0702C19.9383 22.2105 19.7511 22.1638 19.6108 21.9298C19.4704 21.6959 19.5172 21.5088 19.7511 21.3684ZM15.1196 17.0176C15.3067 16.924 15.447 16.9708 15.5406 17.1579C15.6342 17.345 15.5874 17.4854 15.4003 17.579C15.2131 17.6725 15.0728 17.6257 14.9792 17.4386C14.8856 17.2515 14.9324 17.1111 15.1196 17.0176ZM13.1897 14.6667C13.3535 14.7369 13.4587 14.8421 13.5055 14.9825C13.5523 15.1228 13.5406 15.2749 13.4704 15.4386C13.4003 15.6024 13.295 15.7076 13.1546 15.7544C13.0143 15.8012 12.8622 15.7895 12.6985 15.7193C12.5348 15.6491 12.4295 15.5439 12.3827 15.4035C12.3359 15.2632 12.3476 15.1111 12.4178 14.9474C12.488 14.7836 12.5932 14.6784 12.7336 14.6316C12.8739 14.5848 13.026 14.5965 13.1897 14.6667ZM22.3125 24.6667C22.3125 24.8772 22.2541 25.041 22.1371 25.1579C21.9967 25.3217 21.8096 25.4035 21.5757 25.4035C21.3652 25.4035 21.1897 25.345 21.0494 25.2281C20.909 25.0877 20.8389 24.9006 20.8389 24.6667C20.8389 24.4562 20.8973 24.2807 21.0143 24.1404C21.1546 24 21.3418 23.9298 21.5757 23.9298C21.7862 23.9298 21.9617 24 22.102 24.1404C22.2424 24.2573 22.3125 24.4328 22.3125 24.6667ZM18.3476 21.5088C18.5815 21.3217 18.7921 21.345 18.9792 21.579C19.1663 21.8129 19.1429 22.0234 18.909 22.2105C18.6751 22.3977 18.4646 22.3743 18.2774 22.1404C18.0903 21.9064 18.1137 21.6959 18.3476 21.5088ZM27.2599 30.2105C27.4236 30.2105 27.564 30.2807 27.681 30.4211C27.7745 30.5146 27.8213 30.6316 27.8213 30.7719C27.8213 30.9357 27.7511 31.076 27.6108 31.193C27.5172 31.2866 27.4002 31.3333 27.2599 31.3333C27.0962 31.3333 26.9558 31.2632 26.8388 31.1228C26.7453 31.0293 26.6985 30.9123 26.6985 30.7719C26.6985 30.6082 26.7687 30.4679 26.909 30.3509C27.0026 30.2573 27.1195 30.2105 27.2599 30.2105ZM16.2424 19.4035C16.4763 19.4035 16.6634 19.4971 16.8038 19.6842C16.8973 19.8012 16.9441 19.9415 16.9441 20.1053C16.9441 20.3392 16.8622 20.5146 16.6985 20.6316C16.5581 20.7486 16.4061 20.807 16.2424 20.807C16.0084 20.807 15.833 20.7369 15.716 20.5965C15.5991 20.4328 15.5406 20.269 15.5406 20.1053C15.5406 19.8714 15.6108 19.6959 15.7511 19.579C15.9149 19.462 16.0786 19.4035 16.2424 19.4035ZM18.1371 23.193C18.3008 23.193 18.4412 23.2632 18.5581 23.4035C18.6517 23.4971 18.6985 23.614 18.6985 23.7544C18.6985 23.9181 18.6283 24.0585 18.488 24.1755C18.3944 24.269 18.2774 24.3158 18.1371 24.3158C17.9734 24.3158 17.833 24.2456 17.716 24.1053C17.6225 24.0117 17.5757 23.8948 17.5757 23.7544C17.5757 23.5907 17.6459 23.4503 17.7862 23.3333C17.8798 23.2398 17.9967 23.193 18.1371 23.193ZM19.7862 25.3333C20.0903 25.3333 20.3125 25.462 20.4529 25.7193C20.5231 25.8363 20.5581 25.9415 20.5581 26.0351C20.5581 26.3392 20.4295 26.5614 20.1722 26.7018C20.0552 26.7719 19.95 26.807 19.8564 26.807C19.5523 26.807 19.3418 26.7135 19.2248 26.5263C19.1312 26.3392 19.0845 26.1988 19.0845 26.1053C19.0845 25.8012 19.178 25.6024 19.3652 25.5088C19.5523 25.3918 19.6927 25.3333 19.7862 25.3333ZM11.8915 18.9825C12.1254 18.8421 12.3125 18.8889 12.4529 19.1228C12.5932 19.3567 12.5465 19.5439 12.3125 19.6842C12.0786 19.8246 11.8915 19.7778 11.7511 19.5439C11.6108 19.31 11.6576 19.1228 11.8915 18.9825ZM20.6283 27.2983C20.8856 27.2983 21.0611 27.3801 21.1546 27.5439C21.2248 27.6141 21.2599 27.7193 21.2599 27.8597C21.2599 28.117 21.178 28.2924 21.0143 28.386C20.9441 28.4562 20.8389 28.4912 20.6985 28.4912C20.4412 28.4912 20.2657 28.4094 20.1722 28.2456C20.102 28.1755 20.0669 28.0702 20.0669 27.9298C20.0669 27.6725 20.1488 27.4971 20.3125 27.4035C20.3827 27.3333 20.488 27.2983 20.6283 27.2983ZM16.102 23.0526C16.3359 23.0526 16.5231 23.1462 16.6634 23.3333C16.757 23.4503 16.8038 23.5907 16.8038 23.7544C16.8038 23.9883 16.7219 24.1638 16.5581 24.2807C16.4178 24.3977 16.2658 24.4562 16.102 24.4562C15.8681 24.4562 15.6927 24.386 15.5757 24.2456C15.4587 24.0819 15.4003 23.9181 15.4003 23.7544C15.4003 23.5205 15.4704 23.345 15.6108 23.2281C15.7745 23.1111 15.9383 23.0526 16.102 23.0526ZM19.4704 26.8772C19.6576 26.8772 19.7979 26.9591 19.8915 27.1228C19.9617 27.193 19.9967 27.2866 19.9967 27.4035C19.9967 27.5907 19.9149 27.731 19.7511 27.8246C19.681 27.8948 19.5874 27.9298 19.4704 27.9298C19.2833 27.9298 19.1429 27.848 19.0494 27.6842C18.9792 27.614 18.9441 27.5205 18.9441 27.4035C18.9441 27.2164 19.026 27.076 19.1897 26.9825C19.2599 26.9123 19.3535 26.8772 19.4704 26.8772ZM12.3476 20.4211C12.6049 20.4211 12.7804 20.5029 12.8739 20.6667C12.9441 20.7369 12.9792 20.8421 12.9792 20.9825C12.9792 21.2398 12.8973 21.4152 12.7336 21.5088C12.6634 21.579 12.5581 21.614 12.4178 21.614C12.1605 21.614 11.985 21.5322 11.8915 21.3684C11.8213 21.2983 11.7862 21.193 11.7862 21.0526C11.7862 20.7953 11.8681 20.6199 12.0318 20.5263C12.102 20.4562 12.2073 20.4211 12.3476 20.4211ZM16.102 26.2807C16.2891 26.1404 16.4529 26.1638 16.5932 26.3509C16.7336 26.538 16.7102 26.7018 16.5231 26.8421C16.3359 26.9825 16.1722 26.9591 16.0318 26.7719C15.8915 26.5848 15.9149 26.4211 16.102 26.2807Z" fill="#0098F8"/>
<mask id="path-4-outside-1_17_50" maskUnits="userSpaceOnUse" x="-0.476957" y="0.438599" width="51" height="39" fill="black">
<rect fill="white" x="-0.476957" y="0.438599" width="51" height="39"/>
<path d="M42.2072 5.78948C41.3184 5.60234 40.4763 5.22807 39.6809 4.66667C39.1663 4.2924 38.6166 3.64913 38.0318 2.73685C37.8447 2.43275 37.5991 2 37.295 1.4386C37.6926 1.4386 38.1839 1.64913 38.7687 2.07018C38.9558 2.21053 39.2131 2.42106 39.5406 2.70176L40.3827 2.14035C40.8271 2.49123 41.2014 2.91228 41.5055 3.40351C41.9733 4.17544 42.2072 4.97076 42.2072 5.78948ZM45.0143 9.85965L41.2248 7.05263L43.7511 7.47369L43.1897 4.66667C44.0084 5.39182 44.5698 6.2807 44.8739 7.33334C45.0377 7.84796 45.1195 8.33918 45.1195 8.80702C45.1195 9.11111 45.0844 9.46199 45.0143 9.85965ZM47.1195 11.1228C47.0026 11.9649 46.6751 12.7135 46.1371 13.3684L43.3301 10.9825L45.5757 11.4035C45.833 11.0059 46.0201 10.5731 46.1371 10.1053C46.2774 9.63743 46.3476 9.20468 46.3476 8.80702C46.3476 8.45614 46.2774 8.0117 46.1371 7.47369C46.8388 8.33918 47.1897 9.25147 47.1897 10.2105C47.1897 10.3509 47.178 10.5146 47.1546 10.7018C47.1312 10.8889 47.1195 11.0292 47.1195 11.1228ZM48.523 10.9825C48.7803 11.6374 48.909 12.2924 48.909 12.9474C48.909 13.7193 48.6868 14.5146 48.2423 15.3333C47.8213 16.1287 47.2131 16.7836 46.4178 17.2982L44.4529 14.2105L46.6985 14.9123C47.0727 14.4912 47.4236 14 47.7511 13.4386C48.1722 12.6199 48.4295 11.8012 48.523 10.9825ZM49.9265 15.614C49.9733 16.0351 49.9967 16.3392 49.9967 16.5263C49.9967 17.8363 49.5055 19.0292 48.523 20.1053C47.8915 20.7836 47.1429 21.2982 46.2774 21.6491L44.5932 18.1404L46.9792 19.4035C47.6342 18.9591 48.1956 18.4444 48.6634 17.8597C49.2248 17.1813 49.6458 16.4328 49.9265 15.614ZM50.3476 19.2632C50.3944 19.6842 50.4178 19.9766 50.4178 20.1404C50.4178 21.614 49.7862 22.9123 48.523 24.0351C48.1722 24.3392 47.8564 24.5848 47.5757 24.7719C47.295 24.9357 46.9675 25.0643 46.5932 25.1579C46.2423 25.2281 45.9265 25.2632 45.6458 25.2632C45.3885 25.2632 45.0844 25.2281 44.7336 25.1579L43.8915 21.5088L46.1371 23.4737C47.1663 23.1228 48.0435 22.5614 48.7687 21.7895C49.5172 21.0175 50.0435 20.1754 50.3476 19.2632ZM49.6458 24.3158C49.6458 26.2573 48.7102 27.7544 46.8388 28.807C45.9967 29.2749 45.1546 29.5088 44.3125 29.5088C43.8213 29.5088 43.2599 29.4152 42.6283 29.2281L42.909 24.4561C43.0494 24.7135 43.1429 24.9591 43.1897 25.193C43.2599 25.4035 43.295 25.6023 43.295 25.7895C43.295 25.9766 43.295 26.1637 43.295 26.3509C43.3184 26.5146 43.4236 26.6784 43.6108 26.8421C44.0084 27.1696 44.4295 27.3333 44.8739 27.3333C45.1546 27.3333 45.3535 27.3216 45.4704 27.2982C45.9616 27.1579 46.3242 27.0526 46.5581 26.9825C48.0084 26.5848 49.0377 25.6959 49.6458 24.3158ZM46.4178 30.9123C45.716 31.5205 45.0844 31.9532 44.523 32.2105C43.9616 32.4678 43.2599 32.5965 42.4178 32.5965C42.0669 32.5965 41.7979 32.5965 41.6108 32.5965C41.4002 32.5965 41.2014 32.5965 41.0143 32.5965C40.8271 32.5731 40.5698 32.5263 40.2423 32.4561L41.0844 28.6667L41.7862 30.9123C42.3476 31.1462 42.8505 31.2866 43.295 31.3333C43.7394 31.3801 44.0552 31.4035 44.2423 31.4035C44.8973 31.4035 45.6225 31.2398 46.4178 30.9123ZM13.6458 1.4386C13.3651 1.97661 13.1312 2.39766 12.9441 2.70176C12.3593 3.61404 11.7979 4.26901 11.2599 4.66667C10.4646 5.22807 9.62246 5.60234 8.73357 5.78948C8.73357 4.97076 8.96749 4.17544 9.43532 3.40351C9.73942 2.91228 10.1137 2.49123 10.5581 2.14035L11.4002 2.70176C11.7043 2.42106 11.9499 2.21053 12.1371 2.07018C12.7219 1.64913 13.2248 1.4386 13.6458 1.4386ZM43.1897 33.7193C42.6517 34.3041 41.985 34.7602 41.1897 35.0877C40.4178 35.4386 39.7277 35.614 39.1195 35.614C38.6517 35.614 38.0435 35.4971 37.295 35.2632C37.295 34.8187 37.3067 34.4795 37.3301 34.2456C37.3534 34.0117 37.4353 33.6842 37.5757 33.2632C37.7394 32.8421 37.8915 32.5146 38.0318 32.2807C38.1956 32.0468 38.4646 31.731 38.8388 31.3333L38.9792 34L43.1897 33.7193ZM9.71602 7.05263L5.92655 9.85965C5.85638 9.4386 5.82129 9.07602 5.82129 8.77193C5.82129 8.32749 5.90316 7.83626 6.0669 7.29825C6.23064 6.73684 6.44117 6.25731 6.69848 5.85965C6.95579 5.46199 7.30667 5.06433 7.75111 4.66667L7.18971 7.47369L9.71602 7.05263ZM7.61076 10.9825L4.80374 13.3684C4.26573 12.7135 3.94994 12.0702 3.85638 11.4386C3.7862 10.807 3.75111 10.386 3.75111 10.1754C3.75111 9.23977 4.10199 8.33918 4.80374 7.47369C4.78035 7.66082 4.75696 7.90644 4.73357 8.21053C4.71018 8.51462 4.69848 8.73684 4.69848 8.87719C4.69848 9.29825 4.73357 9.67252 4.80374 10C4.87392 10.3275 5.00257 10.6901 5.18971 11.0877C5.2131 11.1579 5.27158 11.2632 5.36515 11.4035L7.61076 10.9825ZM36.1722 34.5614L36.0318 36.5263C35.8213 36.4561 35.5523 36.3977 35.2248 36.3509C34.8973 36.3041 34.6283 36.2807 34.4178 36.2807C34.0435 36.2807 33.2014 36.3977 31.8915 36.6316C31.2365 36.7485 30.6985 36.807 30.2774 36.807C29.7862 36.807 29.3651 36.9006 29.0143 37.0877C28.6634 37.2982 28.4295 37.6257 28.3125 38.0702C28.2423 38.3509 28.371 38.5731 28.6985 38.7368C29.0494 38.924 29.4821 39.0175 29.9967 39.0175C30.5347 39.0175 30.9675 38.9357 31.295 38.7719C31.6458 38.6316 31.7745 38.3977 31.6809 38.0702L30.4178 39.193L26.3476 38.0702C27.5172 37.0877 28.8271 36.386 30.2774 35.9649C30.6985 35.848 31.2599 35.7778 31.9616 35.7544C32.6634 35.731 33.2248 35.6608 33.6458 35.5439C34.5347 35.2866 35.3768 34.9591 36.1722 34.5614ZM6.48795 14.2105L4.52304 17.2982C4.10199 17.0175 3.75111 16.7368 3.47041 16.4561C3.18971 16.1754 2.9324 15.8012 2.69848 15.3333C2.25404 14.5146 2.03181 13.7076 2.03181 12.9123C2.03181 12.6316 2.0669 12.3392 2.13708 12.0351C2.20725 11.7076 2.30082 11.3567 2.41778 10.9825C2.51135 11.4035 2.58152 11.731 2.62831 11.9649C2.81544 12.6901 3.02597 13.2515 3.25988 13.6491C3.42363 13.9532 3.66924 14.2924 3.99673 14.6667C4.04351 14.7135 4.12538 14.7953 4.24234 14.9123L6.48795 14.2105ZM6.3476 18.1404L4.66339 21.6491C3.7979 21.2982 3.04936 20.7836 2.41778 20.1053C1.43532 19.0292 0.944095 17.8246 0.944095 16.4912C0.944095 16.3509 0.944095 16.2105 0.944095 16.0702C0.990879 15.8597 1.01427 15.7076 1.01427 15.614C1.20141 15.9883 1.34176 16.2807 1.43532 16.4912C1.7862 17.193 2.09029 17.6959 2.3476 18C2.60491 18.3041 3.01427 18.6784 3.57567 19.1228C3.66924 19.193 3.7979 19.2866 3.96164 19.4035L6.3476 18.1404ZM24.5932 38.0702L20.523 39.193L19.2599 38.0702C19.1897 38.3743 19.3184 38.6082 19.6458 38.7719C19.9967 38.9357 20.4295 39.0175 20.9441 39.0175C21.5055 39.0175 21.9499 38.9357 22.2774 38.7719C22.6049 38.6082 22.7219 38.3743 22.6283 38.0702C22.3944 37.2281 21.7394 36.807 20.6634 36.807C20.1956 36.807 19.3184 36.6901 18.0318 36.4561C17.3768 36.3392 16.8622 36.2807 16.488 36.2807C16.1839 36.2807 15.9382 36.2924 15.7511 36.3158C15.564 36.3392 15.2833 36.4094 14.909 36.5263L14.7687 34.5614C15.1897 34.7719 15.5874 34.9474 15.9616 35.0877C16.3359 35.2515 16.757 35.3918 17.2248 35.5088C17.6926 35.6491 18.2774 35.731 18.9792 35.7544C19.6809 35.7778 20.2423 35.848 20.6634 35.9649C21.5289 36.2222 22.2189 36.4795 22.7336 36.7368C23.2716 37.0175 23.8915 37.462 24.5932 38.0702ZM7.04936 21.5088L6.20725 25.1579C5.87977 25.2281 5.57567 25.2632 5.29497 25.2632C5.03766 25.2632 4.73357 25.2281 4.38269 25.1579C3.72772 24.9942 3.07275 24.6199 2.41778 24.0351C1.15462 22.9123 0.523043 21.614 0.523043 20.1404C0.523043 20 0.523043 19.8597 0.523043 19.7193C0.569826 19.5088 0.593218 19.3567 0.593218 19.2632C0.87392 19.7544 1.09614 20.1287 1.25988 20.386C1.82129 21.2281 2.32421 21.8363 2.76866 22.2105C3.07275 22.4678 3.5055 22.7602 4.0669 23.0877C4.23064 23.1813 4.47626 23.3099 4.80374 23.4737L7.04936 21.5088ZM8.31252 29.2281C7.96164 29.3216 7.65755 29.3918 7.40024 29.4386C7.16632 29.4854 6.89731 29.5088 6.59322 29.5088C5.82129 29.5088 4.97918 29.2632 4.0669 28.7719C3.15462 28.2807 2.46456 27.6725 1.99673 26.9474C1.52889 26.1988 1.29497 25.3216 1.29497 24.3158C1.90316 25.6959 2.9324 26.5848 4.38269 26.9825C4.78035 27.0994 5.09614 27.193 5.33006 27.2632C5.56398 27.3099 5.80959 27.3333 6.0669 27.3333C6.51135 27.3333 6.9324 27.1696 7.33006 26.8421C7.54059 26.655 7.64585 26.3977 7.64585 26.0702C7.64585 25.4386 7.7745 24.9006 8.03181 24.4561L8.31252 29.2281ZM13.6458 35.2632C12.9675 35.4971 12.3476 35.614 11.7862 35.614C11.2014 35.614 10.5113 35.4503 9.71602 35.1228C9.27158 34.9357 8.90901 34.7485 8.62831 34.5614C8.371 34.3743 8.0786 34.0936 7.75111 33.7193L11.9616 34L12.102 31.3333C12.3827 31.6374 12.6283 31.9532 12.8388 32.2807C13.0494 32.5848 13.2131 32.9006 13.3301 33.2281C13.447 33.5556 13.5289 33.8947 13.5757 34.2456C13.6225 34.5965 13.6458 34.9357 13.6458 35.2632ZM10.6985 32.4561C10.5113 32.5029 10.3242 32.538 10.1371 32.5614C9.94994 32.5848 9.68094 32.5965 9.33006 32.5965C8.95579 32.5965 8.66339 32.5965 8.45287 32.5965C7.00257 32.4795 5.69263 31.9181 4.52304 30.9123C4.89731 30.9825 5.30667 31.0526 5.75111 31.1228C6.19556 31.1696 6.62831 31.193 7.04936 31.193C7.37684 31.193 7.72772 31.1696 8.10199 31.1228C8.47626 31.0526 8.82714 30.9825 9.15462 30.9123L9.85637 28.6667L10.6985 32.4561Z"/>
</mask>
<path d="M42.2072 5.78948C41.3184 5.60234 40.4763 5.22807 39.6809 4.66667C39.1663 4.2924 38.6166 3.64913 38.0318 2.73685C37.8447 2.43275 37.5991 2 37.295 1.4386C37.6926 1.4386 38.1839 1.64913 38.7687 2.07018C38.9558 2.21053 39.2131 2.42106 39.5406 2.70176L40.3827 2.14035C40.8271 2.49123 41.2014 2.91228 41.5055 3.40351C41.9733 4.17544 42.2072 4.97076 42.2072 5.78948ZM45.0143 9.85965L41.2248 7.05263L43.7511 7.47369L43.1897 4.66667C44.0084 5.39182 44.5698 6.2807 44.8739 7.33334C45.0377 7.84796 45.1195 8.33918 45.1195 8.80702C45.1195 9.11111 45.0844 9.46199 45.0143 9.85965ZM47.1195 11.1228C47.0026 11.9649 46.6751 12.7135 46.1371 13.3684L43.3301 10.9825L45.5757 11.4035C45.833 11.0059 46.0201 10.5731 46.1371 10.1053C46.2774 9.63743 46.3476 9.20468 46.3476 8.80702C46.3476 8.45614 46.2774 8.0117 46.1371 7.47369C46.8388 8.33918 47.1897 9.25147 47.1897 10.2105C47.1897 10.3509 47.178 10.5146 47.1546 10.7018C47.1312 10.8889 47.1195 11.0292 47.1195 11.1228ZM48.523 10.9825C48.7803 11.6374 48.909 12.2924 48.909 12.9474C48.909 13.7193 48.6868 14.5146 48.2423 15.3333C47.8213 16.1287 47.2131 16.7836 46.4178 17.2982L44.4529 14.2105L46.6985 14.9123C47.0727 14.4912 47.4236 14 47.7511 13.4386C48.1722 12.6199 48.4295 11.8012 48.523 10.9825ZM49.9265 15.614C49.9733 16.0351 49.9967 16.3392 49.9967 16.5263C49.9967 17.8363 49.5055 19.0292 48.523 20.1053C47.8915 20.7836 47.1429 21.2982 46.2774 21.6491L44.5932 18.1404L46.9792 19.4035C47.6342 18.9591 48.1956 18.4444 48.6634 17.8597C49.2248 17.1813 49.6458 16.4328 49.9265 15.614ZM50.3476 19.2632C50.3944 19.6842 50.4178 19.9766 50.4178 20.1404C50.4178 21.614 49.7862 22.9123 48.523 24.0351C48.1722 24.3392 47.8564 24.5848 47.5757 24.7719C47.295 24.9357 46.9675 25.0643 46.5932 25.1579C46.2423 25.2281 45.9265 25.2632 45.6458 25.2632C45.3885 25.2632 45.0844 25.2281 44.7336 25.1579L43.8915 21.5088L46.1371 23.4737C47.1663 23.1228 48.0435 22.5614 48.7687 21.7895C49.5172 21.0175 50.0435 20.1754 50.3476 19.2632ZM49.6458 24.3158C49.6458 26.2573 48.7102 27.7544 46.8388 28.807C45.9967 29.2749 45.1546 29.5088 44.3125 29.5088C43.8213 29.5088 43.2599 29.4152 42.6283 29.2281L42.909 24.4561C43.0494 24.7135 43.1429 24.9591 43.1897 25.193C43.2599 25.4035 43.295 25.6023 43.295 25.7895C43.295 25.9766 43.295 26.1637 43.295 26.3509C43.3184 26.5146 43.4236 26.6784 43.6108 26.8421C44.0084 27.1696 44.4295 27.3333 44.8739 27.3333C45.1546 27.3333 45.3535 27.3216 45.4704 27.2982C45.9616 27.1579 46.3242 27.0526 46.5581 26.9825C48.0084 26.5848 49.0377 25.6959 49.6458 24.3158ZM46.4178 30.9123C45.716 31.5205 45.0844 31.9532 44.523 32.2105C43.9616 32.4678 43.2599 32.5965 42.4178 32.5965C42.0669 32.5965 41.7979 32.5965 41.6108 32.5965C41.4002 32.5965 41.2014 32.5965 41.0143 32.5965C40.8271 32.5731 40.5698 32.5263 40.2423 32.4561L41.0844 28.6667L41.7862 30.9123C42.3476 31.1462 42.8505 31.2866 43.295 31.3333C43.7394 31.3801 44.0552 31.4035 44.2423 31.4035C44.8973 31.4035 45.6225 31.2398 46.4178 30.9123ZM13.6458 1.4386C13.3651 1.97661 13.1312 2.39766 12.9441 2.70176C12.3593 3.61404 11.7979 4.26901 11.2599 4.66667C10.4646 5.22807 9.62246 5.60234 8.73357 5.78948C8.73357 4.97076 8.96749 4.17544 9.43532 3.40351C9.73942 2.91228 10.1137 2.49123 10.5581 2.14035L11.4002 2.70176C11.7043 2.42106 11.9499 2.21053 12.1371 2.07018C12.7219 1.64913 13.2248 1.4386 13.6458 1.4386ZM43.1897 33.7193C42.6517 34.3041 41.985 34.7602 41.1897 35.0877C40.4178 35.4386 39.7277 35.614 39.1195 35.614C38.6517 35.614 38.0435 35.4971 37.295 35.2632C37.295 34.8187 37.3067 34.4795 37.3301 34.2456C37.3534 34.0117 37.4353 33.6842 37.5757 33.2632C37.7394 32.8421 37.8915 32.5146 38.0318 32.2807C38.1956 32.0468 38.4646 31.731 38.8388 31.3333L38.9792 34L43.1897 33.7193ZM9.71602 7.05263L5.92655 9.85965C5.85638 9.4386 5.82129 9.07602 5.82129 8.77193C5.82129 8.32749 5.90316 7.83626 6.0669 7.29825C6.23064 6.73684 6.44117 6.25731 6.69848 5.85965C6.95579 5.46199 7.30667 5.06433 7.75111 4.66667L7.18971 7.47369L9.71602 7.05263ZM7.61076 10.9825L4.80374 13.3684C4.26573 12.7135 3.94994 12.0702 3.85638 11.4386C3.7862 10.807 3.75111 10.386 3.75111 10.1754C3.75111 9.23977 4.10199 8.33918 4.80374 7.47369C4.78035 7.66082 4.75696 7.90644 4.73357 8.21053C4.71018 8.51462 4.69848 8.73684 4.69848 8.87719C4.69848 9.29825 4.73357 9.67252 4.80374 10C4.87392 10.3275 5.00257 10.6901 5.18971 11.0877C5.2131 11.1579 5.27158 11.2632 5.36515 11.4035L7.61076 10.9825ZM36.1722 34.5614L36.0318 36.5263C35.8213 36.4561 35.5523 36.3977 35.2248 36.3509C34.8973 36.3041 34.6283 36.2807 34.4178 36.2807C34.0435 36.2807 33.2014 36.3977 31.8915 36.6316C31.2365 36.7485 30.6985 36.807 30.2774 36.807C29.7862 36.807 29.3651 36.9006 29.0143 37.0877C28.6634 37.2982 28.4295 37.6257 28.3125 38.0702C28.2423 38.3509 28.371 38.5731 28.6985 38.7368C29.0494 38.924 29.4821 39.0175 29.9967 39.0175C30.5347 39.0175 30.9675 38.9357 31.295 38.7719C31.6458 38.6316 31.7745 38.3977 31.6809 38.0702L30.4178 39.193L26.3476 38.0702C27.5172 37.0877 28.8271 36.386 30.2774 35.9649C30.6985 35.848 31.2599 35.7778 31.9616 35.7544C32.6634 35.731 33.2248 35.6608 33.6458 35.5439C34.5347 35.2866 35.3768 34.9591 36.1722 34.5614ZM6.48795 14.2105L4.52304 17.2982C4.10199 17.0175 3.75111 16.7368 3.47041 16.4561C3.18971 16.1754 2.9324 15.8012 2.69848 15.3333C2.25404 14.5146 2.03181 13.7076 2.03181 12.9123C2.03181 12.6316 2.0669 12.3392 2.13708 12.0351C2.20725 11.7076 2.30082 11.3567 2.41778 10.9825C2.51135 11.4035 2.58152 11.731 2.62831 11.9649C2.81544 12.6901 3.02597 13.2515 3.25988 13.6491C3.42363 13.9532 3.66924 14.2924 3.99673 14.6667C4.04351 14.7135 4.12538 14.7953 4.24234 14.9123L6.48795 14.2105ZM6.3476 18.1404L4.66339 21.6491C3.7979 21.2982 3.04936 20.7836 2.41778 20.1053C1.43532 19.0292 0.944095 17.8246 0.944095 16.4912C0.944095 16.3509 0.944095 16.2105 0.944095 16.0702C0.990879 15.8597 1.01427 15.7076 1.01427 15.614C1.20141 15.9883 1.34176 16.2807 1.43532 16.4912C1.7862 17.193 2.09029 17.6959 2.3476 18C2.60491 18.3041 3.01427 18.6784 3.57567 19.1228C3.66924 19.193 3.7979 19.2866 3.96164 19.4035L6.3476 18.1404ZM24.5932 38.0702L20.523 39.193L19.2599 38.0702C19.1897 38.3743 19.3184 38.6082 19.6458 38.7719C19.9967 38.9357 20.4295 39.0175 20.9441 39.0175C21.5055 39.0175 21.9499 38.9357 22.2774 38.7719C22.6049 38.6082 22.7219 38.3743 22.6283 38.0702C22.3944 37.2281 21.7394 36.807 20.6634 36.807C20.1956 36.807 19.3184 36.6901 18.0318 36.4561C17.3768 36.3392 16.8622 36.2807 16.488 36.2807C16.1839 36.2807 15.9382 36.2924 15.7511 36.3158C15.564 36.3392 15.2833 36.4094 14.909 36.5263L14.7687 34.5614C15.1897 34.7719 15.5874 34.9474 15.9616 35.0877C16.3359 35.2515 16.757 35.3918 17.2248 35.5088C17.6926 35.6491 18.2774 35.731 18.9792 35.7544C19.6809 35.7778 20.2423 35.848 20.6634 35.9649C21.5289 36.2222 22.2189 36.4795 22.7336 36.7368C23.2716 37.0175 23.8915 37.462 24.5932 38.0702ZM7.04936 21.5088L6.20725 25.1579C5.87977 25.2281 5.57567 25.2632 5.29497 25.2632C5.03766 25.2632 4.73357 25.2281 4.38269 25.1579C3.72772 24.9942 3.07275 24.6199 2.41778 24.0351C1.15462 22.9123 0.523043 21.614 0.523043 20.1404C0.523043 20 0.523043 19.8597 0.523043 19.7193C0.569826 19.5088 0.593218 19.3567 0.593218 19.2632C0.87392 19.7544 1.09614 20.1287 1.25988 20.386C1.82129 21.2281 2.32421 21.8363 2.76866 22.2105C3.07275 22.4678 3.5055 22.7602 4.0669 23.0877C4.23064 23.1813 4.47626 23.3099 4.80374 23.4737L7.04936 21.5088ZM8.31252 29.2281C7.96164 29.3216 7.65755 29.3918 7.40024 29.4386C7.16632 29.4854 6.89731 29.5088 6.59322 29.5088C5.82129 29.5088 4.97918 29.2632 4.0669 28.7719C3.15462 28.2807 2.46456 27.6725 1.99673 26.9474C1.52889 26.1988 1.29497 25.3216 1.29497 24.3158C1.90316 25.6959 2.9324 26.5848 4.38269 26.9825C4.78035 27.0994 5.09614 27.193 5.33006 27.2632C5.56398 27.3099 5.80959 27.3333 6.0669 27.3333C6.51135 27.3333 6.9324 27.1696 7.33006 26.8421C7.54059 26.655 7.64585 26.3977 7.64585 26.0702C7.64585 25.4386 7.7745 24.9006 8.03181 24.4561L8.31252 29.2281ZM13.6458 35.2632C12.9675 35.4971 12.3476 35.614 11.7862 35.614C11.2014 35.614 10.5113 35.4503 9.71602 35.1228C9.27158 34.9357 8.90901 34.7485 8.62831 34.5614C8.371 34.3743 8.0786 34.0936 7.75111 33.7193L11.9616 34L12.102 31.3333C12.3827 31.6374 12.6283 31.9532 12.8388 32.2807C13.0494 32.5848 13.2131 32.9006 13.3301 33.2281C13.447 33.5556 13.5289 33.8947 13.5757 34.2456C13.6225 34.5965 13.6458 34.9357 13.6458 35.2632ZM10.6985 32.4561C10.5113 32.5029 10.3242 32.538 10.1371 32.5614C9.94994 32.5848 9.68094 32.5965 9.33006 32.5965C8.95579 32.5965 8.66339 32.5965 8.45287 32.5965C7.00257 32.4795 5.69263 31.9181 4.52304 30.9123C4.89731 30.9825 5.30667 31.0526 5.75111 31.1228C6.19556 31.1696 6.62831 31.193 7.04936 31.193C7.37684 31.193 7.72772 31.1696 8.10199 31.1228C8.47626 31.0526 8.82714 30.9825 9.15462 30.9123L9.85637 28.6667L10.6985 32.4561Z" fill="#F8F800"/>
<path d="M42.2072 5.78948C41.3184 5.60234 40.4763 5.22807 39.6809 4.66667C39.1663 4.2924 38.6166 3.64913 38.0318 2.73685C37.8447 2.43275 37.5991 2 37.295 1.4386C37.6926 1.4386 38.1839 1.64913 38.7687 2.07018C38.9558 2.21053 39.2131 2.42106 39.5406 2.70176L40.3827 2.14035C40.8271 2.49123 41.2014 2.91228 41.5055 3.40351C41.9733 4.17544 42.2072 4.97076 42.2072 5.78948ZM45.0143 9.85965L41.2248 7.05263L43.7511 7.47369L43.1897 4.66667C44.0084 5.39182 44.5698 6.2807 44.8739 7.33334C45.0377 7.84796 45.1195 8.33918 45.1195 8.80702C45.1195 9.11111 45.0844 9.46199 45.0143 9.85965ZM47.1195 11.1228C47.0026 11.9649 46.6751 12.7135 46.1371 13.3684L43.3301 10.9825L45.5757 11.4035C45.833 11.0059 46.0201 10.5731 46.1371 10.1053C46.2774 9.63743 46.3476 9.20468 46.3476 8.80702C46.3476 8.45614 46.2774 8.0117 46.1371 7.47369C46.8388 8.33918 47.1897 9.25147 47.1897 10.2105C47.1897 10.3509 47.178 10.5146 47.1546 10.7018C47.1312 10.8889 47.1195 11.0292 47.1195 11.1228ZM48.523 10.9825C48.7803 11.6374 48.909 12.2924 48.909 12.9474C48.909 13.7193 48.6868 14.5146 48.2423 15.3333C47.8213 16.1287 47.2131 16.7836 46.4178 17.2982L44.4529 14.2105L46.6985 14.9123C47.0727 14.4912 47.4236 14 47.7511 13.4386C48.1722 12.6199 48.4295 11.8012 48.523 10.9825ZM49.9265 15.614C49.9733 16.0351 49.9967 16.3392 49.9967 16.5263C49.9967 17.8363 49.5055 19.0292 48.523 20.1053C47.8915 20.7836 47.1429 21.2982 46.2774 21.6491L44.5932 18.1404L46.9792 19.4035C47.6342 18.9591 48.1956 18.4444 48.6634 17.8597C49.2248 17.1813 49.6458 16.4328 49.9265 15.614ZM50.3476 19.2632C50.3944 19.6842 50.4178 19.9766 50.4178 20.1404C50.4178 21.614 49.7862 22.9123 48.523 24.0351C48.1722 24.3392 47.8564 24.5848 47.5757 24.7719C47.295 24.9357 46.9675 25.0643 46.5932 25.1579C46.2423 25.2281 45.9265 25.2632 45.6458 25.2632C45.3885 25.2632 45.0844 25.2281 44.7336 25.1579L43.8915 21.5088L46.1371 23.4737C47.1663 23.1228 48.0435 22.5614 48.7687 21.7895C49.5172 21.0175 50.0435 20.1754 50.3476 19.2632ZM49.6458 24.3158C49.6458 26.2573 48.7102 27.7544 46.8388 28.807C45.9967 29.2749 45.1546 29.5088 44.3125 29.5088C43.8213 29.5088 43.2599 29.4152 42.6283 29.2281L42.909 24.4561C43.0494 24.7135 43.1429 24.9591 43.1897 25.193C43.2599 25.4035 43.295 25.6023 43.295 25.7895C43.295 25.9766 43.295 26.1637 43.295 26.3509C43.3184 26.5146 43.4236 26.6784 43.6108 26.8421C44.0084 27.1696 44.4295 27.3333 44.8739 27.3333C45.1546 27.3333 45.3535 27.3216 45.4704 27.2982C45.9616 27.1579 46.3242 27.0526 46.5581 26.9825C48.0084 26.5848 49.0377 25.6959 49.6458 24.3158ZM46.4178 30.9123C45.716 31.5205 45.0844 31.9532 44.523 32.2105C43.9616 32.4678 43.2599 32.5965 42.4178 32.5965C42.0669 32.5965 41.7979 32.5965 41.6108 32.5965C41.4002 32.5965 41.2014 32.5965 41.0143 32.5965C40.8271 32.5731 40.5698 32.5263 40.2423 32.4561L41.0844 28.6667L41.7862 30.9123C42.3476 31.1462 42.8505 31.2866 43.295 31.3333C43.7394 31.3801 44.0552 31.4035 44.2423 31.4035C44.8973 31.4035 45.6225 31.2398 46.4178 30.9123ZM13.6458 1.4386C13.3651 1.97661 13.1312 2.39766 12.9441 2.70176C12.3593 3.61404 11.7979 4.26901 11.2599 4.66667C10.4646 5.22807 9.62246 5.60234 8.73357 5.78948C8.73357 4.97076 8.96749 4.17544 9.43532 3.40351C9.73942 2.91228 10.1137 2.49123 10.5581 2.14035L11.4002 2.70176C11.7043 2.42106 11.9499 2.21053 12.1371 2.07018C12.7219 1.64913 13.2248 1.4386 13.6458 1.4386ZM43.1897 33.7193C42.6517 34.3041 41.985 34.7602 41.1897 35.0877C40.4178 35.4386 39.7277 35.614 39.1195 35.614C38.6517 35.614 38.0435 35.4971 37.295 35.2632C37.295 34.8187 37.3067 34.4795 37.3301 34.2456C37.3534 34.0117 37.4353 33.6842 37.5757 33.2632C37.7394 32.8421 37.8915 32.5146 38.0318 32.2807C38.1956 32.0468 38.4646 31.731 38.8388 31.3333L38.9792 34L43.1897 33.7193ZM9.71602 7.05263L5.92655 9.85965C5.85638 9.4386 5.82129 9.07602 5.82129 8.77193C5.82129 8.32749 5.90316 7.83626 6.0669 7.29825C6.23064 6.73684 6.44117 6.25731 6.69848 5.85965C6.95579 5.46199 7.30667 5.06433 7.75111 4.66667L7.18971 7.47369L9.71602 7.05263ZM7.61076 10.9825L4.80374 13.3684C4.26573 12.7135 3.94994 12.0702 3.85638 11.4386C3.7862 10.807 3.75111 10.386 3.75111 10.1754C3.75111 9.23977 4.10199 8.33918 4.80374 7.47369C4.78035 7.66082 4.75696 7.90644 4.73357 8.21053C4.71018 8.51462 4.69848 8.73684 4.69848 8.87719C4.69848 9.29825 4.73357 9.67252 4.80374 10C4.87392 10.3275 5.00257 10.6901 5.18971 11.0877C5.2131 11.1579 5.27158 11.2632 5.36515 11.4035L7.61076 10.9825ZM36.1722 34.5614L36.0318 36.5263C35.8213 36.4561 35.5523 36.3977 35.2248 36.3509C34.8973 36.3041 34.6283 36.2807 34.4178 36.2807C34.0435 36.2807 33.2014 36.3977 31.8915 36.6316C31.2365 36.7485 30.6985 36.807 30.2774 36.807C29.7862 36.807 29.3651 36.9006 29.0143 37.0877C28.6634 37.2982 28.4295 37.6257 28.3125 38.0702C28.2423 38.3509 28.371 38.5731 28.6985 38.7368C29.0494 38.924 29.4821 39.0175 29.9967 39.0175C30.5347 39.0175 30.9675 38.9357 31.295 38.7719C31.6458 38.6316 31.7745 38.3977 31.6809 38.0702L30.4178 39.193L26.3476 38.0702C27.5172 37.0877 28.8271 36.386 30.2774 35.9649C30.6985 35.848 31.2599 35.7778 31.9616 35.7544C32.6634 35.731 33.2248 35.6608 33.6458 35.5439C34.5347 35.2866 35.3768 34.9591 36.1722 34.5614ZM6.48795 14.2105L4.52304 17.2982C4.10199 17.0175 3.75111 16.7368 3.47041 16.4561C3.18971 16.1754 2.9324 15.8012 2.69848 15.3333C2.25404 14.5146 2.03181 13.7076 2.03181 12.9123C2.03181 12.6316 2.0669 12.3392 2.13708 12.0351C2.20725 11.7076 2.30082 11.3567 2.41778 10.9825C2.51135 11.4035 2.58152 11.731 2.62831 11.9649C2.81544 12.6901 3.02597 13.2515 3.25988 13.6491C3.42363 13.9532 3.66924 14.2924 3.99673 14.6667C4.04351 14.7135 4.12538 14.7953 4.24234 14.9123L6.48795 14.2105ZM6.3476 18.1404L4.66339 21.6491C3.7979 21.2982 3.04936 20.7836 2.41778 20.1053C1.43532 19.0292 0.944095 17.8246 0.944095 16.4912C0.944095 16.3509 0.944095 16.2105 0.944095 16.0702C0.990879 15.8597 1.01427 15.7076 1.01427 15.614C1.20141 15.9883 1.34176 16.2807 1.43532 16.4912C1.7862 17.193 2.09029 17.6959 2.3476 18C2.60491 18.3041 3.01427 18.6784 3.57567 19.1228C3.66924 19.193 3.7979 19.2866 3.96164 19.4035L6.3476 18.1404ZM24.5932 38.0702L20.523 39.193L19.2599 38.0702C19.1897 38.3743 19.3184 38.6082 19.6458 38.7719C19.9967 38.9357 20.4295 39.0175 20.9441 39.0175C21.5055 39.0175 21.9499 38.9357 22.2774 38.7719C22.6049 38.6082 22.7219 38.3743 22.6283 38.0702C22.3944 37.2281 21.7394 36.807 20.6634 36.807C20.1956 36.807 19.3184 36.6901 18.0318 36.4561C17.3768 36.3392 16.8622 36.2807 16.488 36.2807C16.1839 36.2807 15.9382 36.2924 15.7511 36.3158C15.564 36.3392 15.2833 36.4094 14.909 36.5263L14.7687 34.5614C15.1897 34.7719 15.5874 34.9474 15.9616 35.0877C16.3359 35.2515 16.757 35.3918 17.2248 35.5088C17.6926 35.6491 18.2774 35.731 18.9792 35.7544C19.6809 35.7778 20.2423 35.848 20.6634 35.9649C21.5289 36.2222 22.2189 36.4795 22.7336 36.7368C23.2716 37.0175 23.8915 37.462 24.5932 38.0702ZM7.04936 21.5088L6.20725 25.1579C5.87977 25.2281 5.57567 25.2632 5.29497 25.2632C5.03766 25.2632 4.73357 25.2281 4.38269 25.1579C3.72772 24.9942 3.07275 24.6199 2.41778 24.0351C1.15462 22.9123 0.523043 21.614 0.523043 20.1404C0.523043 20 0.523043 19.8597 0.523043 19.7193C0.569826 19.5088 0.593218 19.3567 0.593218 19.2632C0.87392 19.7544 1.09614 20.1287 1.25988 20.386C1.82129 21.2281 2.32421 21.8363 2.76866 22.2105C3.07275 22.4678 3.5055 22.7602 4.0669 23.0877C4.23064 23.1813 4.47626 23.3099 4.80374 23.4737L7.04936 21.5088ZM8.31252 29.2281C7.96164 29.3216 7.65755 29.3918 7.40024 29.4386C7.16632 29.4854 6.89731 29.5088 6.59322 29.5088C5.82129 29.5088 4.97918 29.2632 4.0669 28.7719C3.15462 28.2807 2.46456 27.6725 1.99673 26.9474C1.52889 26.1988 1.29497 25.3216 1.29497 24.3158C1.90316 25.6959 2.9324 26.5848 4.38269 26.9825C4.78035 27.0994 5.09614 27.193 5.33006 27.2632C5.56398 27.3099 5.80959 27.3333 6.0669 27.3333C6.51135 27.3333 6.9324 27.1696 7.33006 26.8421C7.54059 26.655 7.64585 26.3977 7.64585 26.0702C7.64585 25.4386 7.7745 24.9006 8.03181 24.4561L8.31252 29.2281ZM13.6458 35.2632C12.9675 35.4971 12.3476 35.614 11.7862 35.614C11.2014 35.614 10.5113 35.4503 9.71602 35.1228C9.27158 34.9357 8.90901 34.7485 8.62831 34.5614C8.371 34.3743 8.0786 34.0936 7.75111 33.7193L11.9616 34L12.102 31.3333C12.3827 31.6374 12.6283 31.9532 12.8388 32.2807C13.0494 32.5848 13.2131 32.9006 13.3301 33.2281C13.447 33.5556 13.5289 33.8947 13.5757 34.2456C13.6225 34.5965 13.6458 34.9357 13.6458 35.2632ZM10.6985 32.4561C10.5113 32.5029 10.3242 32.538 10.1371 32.5614C9.94994 32.5848 9.68094 32.5965 9.33006 32.5965C8.95579 32.5965 8.66339 32.5965 8.45287 32.5965C7.00257 32.4795 5.69263 31.9181 4.52304 30.9123C4.89731 30.9825 5.30667 31.0526 5.75111 31.1228C6.19556 31.1696 6.62831 31.193 7.04936 31.193C7.37684 31.193 7.72772 31.1696 8.10199 31.1228C8.47626 31.0526 8.82714 30.9825 9.15462 30.9123L9.85637 28.6667L10.6985 32.4561Z" stroke="black" stroke-width="0.210526" stroke-linejoin="round" mask="url(#path-4-outside-1_17_50)"/>
</svg>
